<?xml version="1.0" encoding="UTF-8"?>
<!DOCTYPE svg PUBLIC "-//W3C//DTD SVG 1.1//EN" "http://www.w3.org/Graphics/SVG/1.1/DTD/svg11.dtd">
<!-- Creator: CorelDRAW X6 -->
<svg xmlns="http://www.w3.org/2000/svg" xml:space="preserve" width="147mm" height="8mm" version="1.1" style="shape-rendering:geometricPrecision; text-rendering:geometricPrecision; image-rendering:optimizeQuality; fill-rule:evenodd; clip-rule:evenodd"
viewBox="0 0 14700 800"
 xmlns:xlink="http://www.w3.org/1999/xlink">
 <defs>
  <style type="text/css">
   <![CDATA[
    .fil0 {fill:rgba(42,40,79,0.1);fill-rule:nonzero}
   ]]>
  </style>
 </defs>
 <g id="Layer_x0020_1">
  <metadata id="CorelCorpID_0Corel-Layer"/>
  <path class="fil0" d="M11253 457c0,-18 0,-35 -2,-50 -1,-14 -3,-28 -6,-39 -2,-11 -6,-21 -10,-29 -4,-8 -9,-15 -14,-20 -6,-6 -13,-9 -20,-12 -8,-2 -16,-3 -25,-3 -17,0 -30,3 -40,11 -10,8 -18,18 -24,32 -6,13 -10,29 -12,47 -2,18 -3,38 -3,58 0,28 1,52 4,71 3,20 8,36 14,48 6,12 14,21 24,27 9,5 21,8 35,8 11,0 20,-1 28,-5 9,-3 16,-8 22,-15 5,-6 10,-14 14,-23 4,-9 7,-19 9,-30 3,-11 4,-23 5,-36 1,-12 1,-26 1,-40zm51 -3c0,29 -2,55 -7,78 -4,24 -12,44 -22,61 -11,17 -24,31 -41,40 -17,9 -38,14 -63,14 -23,0 -43,-4 -59,-13 -16,-8 -29,-20 -39,-37 -10,-16 -17,-36 -21,-60 -4,-23 -6,-50 -6,-81 0,-29 2,-55 7,-79 5,-23 12,-44 22,-61 11,-17 24,-30 41,-39 17,-9 38,-14 63,-14 23,0 43,4 59,12 16,9 29,21 39,37 10,17 17,37 21,60 4,24 6,51 6,82z"/>
  <path class="fil0" d="M11553 457c0,-18 -1,-35 -2,-50 -2,-14 -4,-28 -6,-39 -3,-11 -6,-21 -10,-29 -5,-8 -9,-15 -15,-20 -6,-6 -13,-9 -20,-12 -7,-2 -16,-3 -25,-3 -16,0 -29,3 -40,11 -10,8 -18,18 -24,32 -6,13 -10,29 -12,47 -2,18 -3,38 -3,58 0,28 2,52 4,71 3,20 8,36 14,48 6,12 14,21 24,27 10,5 22,8 35,8 11,0 21,-1 29,-5 8,-3 15,-8 21,-15 6,-6 11,-14 14,-23 4,-9 7,-19 10,-30 2,-11 3,-23 4,-36 1,-12 2,-26 2,-40zm50 -3c0,29 -2,55 -6,78 -5,24 -12,44 -23,61 -10,17 -24,31 -41,40 -17,9 -38,14 -63,14 -23,0 -43,-4 -59,-13 -16,-8 -29,-20 -39,-37 -9,-16 -16,-36 -20,-60 -5,-23 -7,-50 -7,-81 0,-29 3,-55 7,-79 5,-23 12,-44 23,-61 10,-17 24,-30 41,-39 17,-9 37,-14 62,-14 24,0 43,4 60,12 16,9 29,21 38,37 10,17 17,37 21,60 4,24 6,51 6,82z"/>
  <path class="fil0" d="M11852 457c0,-18 -1,-35 -2,-50 -1,-14 -3,-28 -6,-39 -3,-11 -6,-21 -10,-29 -4,-8 -9,-15 -15,-20 -6,-6 -12,-9 -20,-12 -7,-2 -15,-3 -25,-3 -16,0 -29,3 -39,11 -11,8 -19,18 -24,32 -6,13 -10,29 -12,47 -3,18 -4,38 -4,58 0,28 2,52 5,71 3,20 7,36 13,48 7,12 15,21 24,27 10,5 22,8 36,8 10,0 20,-1 28,-5 8,-3 15,-8 21,-15 6,-6 11,-14 15,-23 4,-9 7,-19 9,-30 2,-11 4,-23 5,-36 1,-12 1,-26 1,-40zm51 -3c0,29 -3,55 -7,78 -5,24 -12,44 -23,61 -10,17 -24,31 -41,40 -17,9 -37,14 -62,14 -24,0 -43,-4 -59,-13 -17,-8 -29,-20 -39,-37 -10,-16 -17,-36 -21,-60 -4,-23 -6,-50 -6,-81 0,-29 2,-55 7,-79 4,-23 12,-44 22,-61 10,-17 24,-30 41,-39 17,-9 38,-14 62,-14 24,0 44,4 60,12 16,9 29,21 39,37 9,17 16,37 21,60 4,24 6,51 6,82z"/>
  <path class="fil0" d="M12190 622c0,4 0,7 0,9 -1,3 -2,5 -3,6 -1,2 -2,3 -3,3 -1,1 -3,1 -4,1l-195 0c-1,0 -2,0 -4,-1 -1,0 -2,-1 -3,-3 -1,-1 -2,-3 -2,-6 -1,-2 -1,-5 -1,-9 0,-4 0,-7 1,-9 0,-3 1,-5 2,-6 1,-2 2,-3 3,-4 1,-1 3,-1 4,-1l78 0 0 -284 -72 43c-4,2 -7,3 -9,3 -2,1 -4,0 -5,-1 -2,-1 -2,-3 -3,-6 0,-3 -1,-7 -1,-11 0,-3 1,-6 1,-8 0,-3 1,-5 1,-6 1,-2 2,-3 3,-4 1,-1 2,-3 4,-4l86 -55c0,0 1,-1 3,-1 1,-1 2,-1 4,-1 2,-1 4,-1 6,-1 2,0 5,0 9,0 4,0 8,0 11,0 3,1 6,1 7,2 2,1 3,1 4,2 0,2 1,3 1,4l0 328 67 0c2,0 3,0 4,1 2,1 3,2 4,4 1,1 1,3 2,6 0,2 0,5 0,9z"/>
  <path class="fil0" d="M12490 622c0,4 0,7 -1,9 -1,3 -1,5 -2,6 -1,2 -2,3 -4,3 -1,1 -2,1 -4,1l-195 0c-1,0 -2,0 -3,-1 -1,0 -3,-1 -4,-3 -1,-1 -1,-3 -2,-6 -1,-2 -1,-5 -1,-9 0,-4 0,-7 1,-9 1,-3 1,-5 2,-6 1,-2 2,-3 3,-4 2,-1 3,-1 4,-1l78 0 0 -284 -72 43c-3,2 -6,3 -9,3 -2,1 -4,0 -5,-1 -1,-1 -2,-3 -3,-6 0,-3 0,-7 0,-11 0,-3 0,-6 0,-8 0,-3 1,-5 1,-6 1,-2 2,-3 3,-4 1,-1 2,-3 4,-4l86 -55c1,0 2,-1 3,-1 1,-1 2,-1 4,-1 2,-1 4,-1 6,-1 2,0 5,0 9,0 4,0 8,0 11,0 3,1 6,1 8,2 1,1 2,1 3,2 1,2 1,3 1,4l0 328 67 0c2,0 3,0 5,1 1,1 2,2 3,4 1,1 2,3 2,6 1,2 1,5 1,9z"/>
  <path class="fil0" d="M12750 457c0,-18 -1,-35 -2,-50 -1,-14 -3,-28 -6,-39 -3,-11 -6,-21 -10,-29 -4,-8 -9,-15 -15,-20 -6,-6 -12,-9 -20,-12 -7,-2 -15,-3 -25,-3 -16,0 -29,3 -39,11 -11,8 -19,18 -25,32 -5,13 -9,29 -12,47 -2,18 -3,38 -3,58 0,28 2,52 5,71 3,20 7,36 13,48 7,12 15,21 24,27 10,5 22,8 36,8 10,0 20,-1 28,-5 8,-3 15,-8 21,-15 6,-6 11,-14 15,-23 3,-9 7,-19 9,-30 2,-11 4,-23 5,-36 0,-12 1,-26 1,-40zm51 -3c0,29 -3,55 -7,78 -5,24 -12,44 -23,61 -10,17 -24,31 -41,40 -17,9 -37,14 -62,14 -24,0 -44,-4 -60,-13 -16,-8 -29,-20 -38,-37 -10,-16 -17,-36 -21,-60 -4,-23 -6,-50 -6,-81 0,-29 2,-55 6,-79 5,-23 13,-44 23,-61 10,-17 24,-30 41,-39 17,-9 38,-14 62,-14 24,0 44,4 60,12 16,9 29,21 39,37 9,17 16,37 20,60 5,24 7,51 7,82z"/>
  <path class="fil0" d="M13088 622c0,4 0,7 0,9 -1,3 -2,5 -3,6 -1,2 -2,3 -3,3 -1,1 -3,1 -4,1l-195 0c-1,0 -2,0 -4,-1 -1,0 -2,-1 -3,-3 -1,-1 -2,-3 -2,-6 -1,-2 -1,-5 -1,-9 0,-4 0,-7 1,-9 0,-3 1,-5 2,-6 1,-2 2,-3 3,-4 1,-1 3,-1 4,-1l78 0 0 -284 -72 43c-4,2 -7,3 -9,3 -2,1 -4,0 -5,-1 -2,-1 -3,-3 -3,-6 0,-3 -1,-7 -1,-11 0,-3 0,-6 1,-8 0,-3 0,-5 1,-6 1,-2 1,-3 2,-4 1,-1 3,-3 5,-4l86 -55c0,0 1,-1 2,-1 2,-1 3,-1 5,-1 1,-1 3,-1 6,-1 2,0 5,0 8,0 5,0 9,0 12,0 3,1 5,1 7,2 2,1 3,1 4,2 0,2 1,3 1,4l0 328 67 0c2,0 3,0 4,1 2,1 3,2 4,4 0,1 1,3 2,6 0,2 0,5 0,9z"/>
  <path class="fil0" d="M13348 457c0,-18 0,-35 -2,-50 -1,-14 -3,-28 -5,-39 -3,-11 -6,-21 -11,-29 -4,-8 -9,-15 -14,-20 -6,-6 -13,-9 -20,-12 -8,-2 -16,-3 -25,-3 -16,0 -30,3 -40,11 -10,8 -18,18 -24,32 -6,13 -10,29 -12,47 -2,18 -3,38 -3,58 0,28 1,52 4,71 3,20 8,36 14,48 6,12 14,21 24,27 10,5 21,8 35,8 11,0 20,-1 29,-5 8,-3 15,-8 21,-15 6,-6 10,-14 14,-23 4,-9 7,-19 9,-30 3,-11 4,-23 5,-36 1,-12 1,-26 1,-40zm51 -3c0,29 -2,55 -7,78 -4,24 -12,44 -22,61 -11,17 -24,31 -41,40 -17,9 -38,14 -63,14 -23,0 -43,-4 -59,-13 -16,-8 -29,-20 -39,-37 -10,-16 -17,-36 -21,-60 -4,-23 -6,-50 -6,-81 0,-29 2,-55 7,-79 5,-23 12,-44 23,-61 10,-17 24,-30 40,-39 17,-9 38,-14 63,-14 23,0 43,4 59,12 16,9 29,21 39,37 10,17 17,37 21,60 4,24 6,51 6,82z"/>
  <path class="fil0" d="M13687 622c0,4 0,7 -1,9 0,3 -1,5 -2,6 -1,2 -2,3 -4,3 -1,1 -2,1 -3,1l-195 0c-2,0 -3,0 -4,-1 -1,0 -2,-1 -3,-3 -1,-1 -2,-3 -3,-6 0,-2 -1,-5 -1,-9 0,-4 1,-7 1,-9 1,-3 1,-5 2,-6 1,-2 2,-3 3,-4 2,-1 3,-1 5,-1l78 0 0 -284 -73 43c-3,2 -6,3 -8,3 -3,1 -4,0 -6,-1 -1,-1 -2,-3 -2,-6 -1,-3 -1,-7 -1,-11 0,-3 0,-6 0,-8 1,-3 1,-5 2,-6 0,-2 1,-3 2,-4 1,-1 2,-3 4,-4l86 -55c1,0 2,-1 3,-1 1,-1 3,-1 4,-1 2,-1 4,-1 6,-1 3,0 6,0 9,0 5,0 9,0 12,0 3,1 5,1 7,2 2,1 3,1 3,2 1,2 1,3 1,4l0 328 68 0c1,0 3,0 4,1 1,1 2,2 3,4 1,1 2,3 2,6 1,2 1,5 1,9z"/>
  <path class="fil0" d="M13986 622c0,4 0,7 -1,9 0,3 -1,5 -2,6 -1,2 -2,3 -3,3 -1,1 -3,1 -4,1l-195 0c-1,0 -3,0 -4,-1 -1,0 -2,-1 -3,-3 -1,-1 -2,-3 -3,-6 0,-2 0,-5 0,-9 0,-4 0,-7 0,-9 1,-3 2,-5 3,-6 0,-2 2,-3 3,-4 1,-1 2,-1 4,-1l78 0 0 -284 -72 43c-4,2 -7,3 -9,3 -2,1 -4,0 -5,-1 -2,-1 -3,-3 -3,-6 -1,-3 -1,-7 -1,-11 0,-3 0,-6 1,-8 0,-3 0,-5 1,-6 0,-2 1,-3 2,-4 1,-1 3,-3 5,-4l85 -55c1,0 2,-1 3,-1 1,-1 3,-1 5,-1 1,-1 3,-1 6,-1 2,0 5,0 8,0 5,0 9,0 12,0 3,1 5,1 7,2 2,1 3,1 4,2 0,2 0,3 0,4l0 328 68 0c1,0 3,0 4,1 2,1 3,2 4,4 0,1 1,3 2,6 0,2 0,5 0,9z"/>
  <path class="fil0" d="M14286 622c0,4 -1,7 -1,9 -1,3 -2,5 -3,6 -1,2 -2,3 -3,3 -1,1 -2,1 -4,1l-195 0c-1,0 -2,0 -3,-1 -2,0 -3,-1 -4,-3 -1,-1 -2,-3 -2,-6 -1,-2 -1,-5 -1,-9 0,-4 0,-7 1,-9 0,-3 1,-5 2,-6 1,-2 2,-3 3,-4 1,-1 3,-1 4,-1l78 0 0 -284 -72 43c-4,2 -7,3 -9,3 -2,1 -4,0 -5,-1 -1,-1 -2,-3 -3,-6 0,-3 -1,-7 -1,-11 0,-3 1,-6 1,-8 0,-3 1,-5 1,-6 1,-2 2,-3 3,-4 1,-1 2,-3 4,-4l86 -55c1,0 1,-1 3,-1 1,-1 2,-1 4,-1 2,-1 4,-1 6,-1 2,0 5,0 9,0 4,0 8,0 11,0 3,1 6,1 7,2 2,1 3,1 4,2 0,2 1,3 1,4l0 328 67 0c2,0 3,0 5,1 1,1 2,2 3,4 1,1 1,3 2,6 0,2 1,5 1,9z"/>
  <path class="fil0" d="M14546 457c0,-18 -1,-35 -2,-50 -2,-14 -4,-28 -6,-39 -3,-11 -6,-21 -10,-29 -5,-8 -9,-15 -15,-20 -6,-6 -13,-9 -20,-12 -7,-2 -16,-3 -25,-3 -16,0 -29,3 -40,11 -10,8 -18,18 -24,32 -6,13 -10,29 -12,47 -2,18 -3,38 -3,58 0,28 2,52 4,71 3,20 8,36 14,48 6,12 14,21 24,27 10,5 22,8 35,8 11,0 21,-1 29,-5 8,-3 15,-8 21,-15 6,-6 11,-14 14,-23 4,-9 7,-19 10,-30 2,-11 3,-23 4,-36 1,-12 2,-26 2,-40zm50 -3c0,29 -2,55 -6,78 -5,24 -12,44 -23,61 -10,17 -24,31 -41,40 -17,9 -38,14 -63,14 -23,0 -43,-4 -59,-13 -16,-8 -29,-20 -39,-37 -9,-16 -16,-36 -20,-60 -5,-23 -7,-50 -7,-81 0,-29 3,-55 7,-79 5,-23 12,-44 23,-61 10,-17 24,-30 41,-39 17,-9 37,-14 62,-14 24,0 43,4 60,12 16,9 28,21 38,37 10,17 17,37 21,60 4,24 6,51 6,82z"/>
  <path class="fil0" d="M236 622c0,4 0,7 -1,9 0,3 -1,5 -2,6 -1,2 -2,3 -3,3 -2,1 -3,1 -4,1l-195 0c-1,0 -3,0 -4,-1 -1,0 -2,-1 -3,-3 -1,-1 -2,-3 -3,-6 0,-2 0,-5 0,-9 0,-4 0,-7 0,-9 1,-3 2,-5 3,-6 0,-2 1,-3 3,-4 1,-1 2,-1 4,-1l78 0 0 -284 -72 43c-4,2 -7,3 -9,3 -2,1 -4,0 -5,-1 -2,-1 -3,-3 -3,-6 -1,-3 -1,-7 -1,-11 0,-3 0,-6 1,-8 0,-3 0,-5 1,-6 0,-2 1,-3 2,-4 1,-1 3,-3 4,-4l86 -55c1,0 2,-1 3,-1 1,-1 3,-1 5,-1 1,-1 3,-1 6,-1 2,0 5,0 8,0 5,0 9,0 12,0 3,1 5,1 7,2 2,1 3,1 4,2 0,2 0,3 0,4l0 328 68 0c1,0 3,0 4,1 2,1 3,2 3,4 1,1 2,3 3,6 0,2 0,5 0,9z"/>
  <path class="fil0" d="M496 457c0,-18 0,-35 -2,-50 -1,-14 -3,-28 -6,-39 -2,-11 -6,-21 -10,-29 -4,-8 -9,-15 -15,-20 -5,-6 -12,-9 -19,-12 -8,-2 -16,-3 -25,-3 -17,0 -30,3 -40,11 -10,8 -18,18 -24,32 -6,13 -10,29 -12,47 -2,18 -3,38 -3,58 0,28 1,52 4,71 3,20 8,36 14,48 6,12 14,21 24,27 9,5 21,8 35,8 11,0 20,-1 28,-5 9,-3 16,-8 21,-15 6,-6 11,-14 15,-23 4,-9 7,-19 9,-30 3,-11 4,-23 5,-36 1,-12 1,-26 1,-40zm51 -3c0,29 -2,55 -7,78 -4,24 -12,44 -22,61 -11,17 -24,31 -41,40 -17,9 -38,14 -63,14 -23,0 -43,-4 -59,-13 -16,-8 -29,-20 -39,-37 -10,-16 -17,-36 -21,-60 -4,-23 -6,-50 -6,-81 0,-29 2,-55 7,-79 5,-23 12,-44 22,-61 11,-17 24,-30 41,-39 17,-9 38,-14 63,-14 23,0 43,4 59,12 16,9 29,21 39,37 10,17 17,37 21,60 4,24 6,51 6,82z"/>
  <path class="fil0" d="M835 622c0,4 0,7 -1,9 -1,3 -1,5 -2,6 -1,2 -2,3 -4,3 -1,1 -2,1 -4,1l-194 0c-2,0 -3,0 -4,-1 -1,0 -2,-1 -4,-3 -1,-1 -1,-3 -2,-6 -1,-2 -1,-5 -1,-9 0,-4 0,-7 1,-9 1,-3 1,-5 2,-6 1,-2 2,-3 3,-4 2,-1 3,-1 5,-1l77 0 0 -284 -72 43c-3,2 -6,3 -8,3 -3,1 -4,0 -6,-1 -1,-1 -2,-3 -3,-6 0,-3 0,-7 0,-11 0,-3 0,-6 0,-8 0,-3 1,-5 1,-6 1,-2 2,-3 3,-4 1,-1 2,-3 4,-4l86 -55c1,0 2,-1 3,-1 1,-1 2,-1 4,-1 2,-1 4,-1 6,-1 3,0 5,0 9,0 5,0 8,0 11,0 4,1 6,1 8,2 1,1 3,1 3,2 1,2 1,3 1,4l0 328 67 0c2,0 3,0 5,1 1,1 2,2 3,4 1,1 2,3 2,6 1,2 1,5 1,9z"/>
  <path class="fil0" d="M1095 457c0,-18 -1,-35 -2,-50 -1,-14 -3,-28 -6,-39 -3,-11 -6,-21 -10,-29 -4,-8 -9,-15 -15,-20 -6,-6 -12,-9 -20,-12 -7,-2 -15,-3 -25,-3 -16,0 -29,3 -39,11 -11,8 -19,18 -25,32 -5,13 -9,29 -11,47 -3,18 -4,38 -4,58 0,28 2,52 5,71 3,20 7,36 13,48 7,12 15,21 24,27 10,5 22,8 36,8 10,0 20,-1 28,-5 8,-3 15,-8 21,-15 6,-6 11,-14 15,-23 3,-9 7,-19 9,-30 2,-11 4,-23 5,-36 0,-12 1,-26 1,-40zm51 -3c0,29 -3,55 -7,78 -5,24 -12,44 -23,61 -10,17 -24,31 -41,40 -17,9 -37,14 -62,14 -24,0 -43,-4 -60,-13 -16,-8 -29,-20 -38,-37 -10,-16 -17,-36 -21,-60 -4,-23 -6,-50 -6,-81 0,-29 2,-55 6,-79 5,-23 13,-44 23,-61 10,-17 24,-30 41,-39 17,-9 38,-14 62,-14 24,0 44,4 60,12 16,9 29,21 39,37 9,17 16,37 20,60 5,24 7,51 7,82z"/>
  <path class="fil0" d="M1433 622c0,4 0,7 0,9 -1,3 -2,5 -3,6 -1,2 -2,3 -3,3 -1,1 -3,1 -4,1l-195 0c-1,0 -2,0 -4,-1 -1,0 -2,-1 -3,-3 -1,-1 -2,-3 -2,-6 -1,-2 -1,-5 -1,-9 0,-4 0,-7 1,-9 0,-3 1,-5 2,-6 1,-2 2,-3 3,-4 1,-1 3,-1 4,-1l78 0 0 -284 -72 43c-4,2 -7,3 -9,3 -2,1 -4,0 -5,-1 -2,-1 -3,-3 -3,-6 0,-3 -1,-7 -1,-11 0,-3 0,-6 1,-8 0,-3 0,-5 1,-6 1,-2 1,-3 2,-4 2,-1 3,-3 5,-4l86 -55c0,0 1,-1 2,-1 2,-1 3,-1 5,-1 2,-1 4,-1 6,-1 2,0 5,0 8,0 5,0 9,0 12,0 3,1 6,1 7,2 2,1 3,1 4,2 0,2 1,3 1,4l0 328 67 0c2,0 3,0 4,1 2,1 3,2 4,4 1,1 1,3 2,6 0,2 0,5 0,9z"/>
  <path class="fil0" d="M1733 622c0,4 -1,7 -1,9 -1,3 -1,5 -2,6 -1,2 -2,3 -4,3 -1,1 -2,1 -4,1l-195 0c-1,0 -2,0 -3,-1 -1,0 -3,-1 -4,-3 -1,-1 -1,-3 -2,-6 -1,-2 -1,-5 -1,-9 0,-4 0,-7 1,-9 1,-3 1,-5 2,-6 1,-2 2,-3 3,-4 1,-1 3,-1 4,-1l78 0 0 -284 -72 43c-3,2 -6,3 -9,3 -2,1 -4,0 -5,-1 -1,-1 -2,-3 -3,-6 0,-3 0,-7 0,-11 0,-3 0,-6 0,-8 0,-3 1,-5 1,-6 1,-2 2,-3 3,-4 1,-1 2,-3 4,-4l86 -55c1,0 2,-1 3,-1 1,-1 2,-1 4,-1 2,-1 4,-1 6,-1 2,0 5,0 9,0 4,0 8,0 11,0 3,1 6,1 8,2 1,1 2,1 3,2 1,2 1,3 1,4l0 328 67 0c2,0 3,0 5,1 1,1 2,2 3,4 1,1 2,3 2,6 1,2 1,5 1,9z"/>
  <path class="fil0" d="M1993 457c0,-18 -1,-35 -2,-50 -2,-14 -4,-28 -6,-39 -3,-11 -6,-21 -10,-29 -4,-8 -9,-15 -15,-20 -6,-6 -12,-9 -20,-12 -7,-2 -16,-3 -25,-3 -16,0 -29,3 -40,11 -10,8 -18,18 -24,32 -5,13 -9,29 -12,47 -2,18 -3,38 -3,58 0,28 2,52 5,71 2,20 7,36 13,48 6,12 14,21 24,27 10,5 22,8 36,8 10,0 20,-1 28,-5 8,-3 15,-8 21,-15 6,-6 11,-14 15,-23 3,-9 6,-19 9,-30 2,-11 4,-23 5,-36 0,-12 1,-26 1,-40zm51 -3c0,29 -3,55 -7,78 -5,24 -12,44 -23,61 -10,17 -24,31 -41,40 -17,9 -38,14 -62,14 -24,0 -44,-4 -60,-13 -16,-8 -29,-20 -38,-37 -10,-16 -17,-36 -21,-60 -4,-23 -7,-50 -7,-81 0,-29 3,-55 7,-79 5,-23 13,-44 23,-61 10,-17 24,-30 41,-39 17,-9 37,-14 62,-14 24,0 44,4 60,12 16,9 29,21 38,37 10,17 17,37 21,60 4,24 7,51 7,82z"/>
  <path class="fil0" d="M2331 622c0,4 0,7 -1,9 0,3 -1,5 -2,6 -1,2 -2,3 -3,3 -1,1 -3,1 -4,1l-195 0c-1,0 -3,0 -4,-1 -1,0 -2,-1 -3,-3 -1,-1 -2,-3 -3,-6 0,-2 0,-5 0,-9 0,-4 0,-7 0,-9 1,-3 2,-5 3,-6 1,-2 2,-3 3,-4 1,-1 2,-1 4,-1l78 0 0 -284 -72 43c-4,2 -7,3 -9,3 -2,1 -4,0 -5,-1 -2,-1 -3,-3 -3,-6 -1,-3 -1,-7 -1,-11 0,-3 0,-6 1,-8 0,-3 0,-5 1,-6 0,-2 1,-3 2,-4 1,-1 3,-3 5,-4l85 -55c1,0 2,-1 3,-1 2,-1 3,-1 5,-1 1,-1 3,-1 6,-1 2,0 5,0 8,0 5,0 9,0 12,0 3,1 5,1 7,2 2,1 3,1 4,2 0,2 0,3 0,4l0 328 68 0c1,0 3,0 4,1 2,1 3,2 4,4 0,1 1,3 2,6 0,2 0,5 0,9z"/>
  <path class="fil0" d="M2591 457c0,-18 0,-35 -2,-50 -1,-14 -3,-28 -6,-39 -2,-11 -5,-21 -10,-29 -4,-8 -9,-15 -14,-20 -6,-6 -13,-9 -20,-12 -8,-2 -16,-3 -25,-3 -16,0 -30,3 -40,11 -10,8 -18,18 -24,32 -6,13 -10,29 -12,47 -2,18 -3,38 -3,58 0,28 1,52 4,71 3,20 8,36 14,48 6,12 14,21 24,27 10,5 21,8 35,8 11,0 20,-1 29,-5 8,-3 15,-8 21,-15 5,-6 10,-14 14,-23 4,-9 7,-19 9,-30 3,-11 4,-23 5,-36 1,-12 1,-26 1,-40zm51 -3c0,29 -2,55 -7,78 -4,24 -12,44 -22,61 -11,17 -24,31 -41,40 -17,9 -38,14 -63,14 -23,0 -43,-4 -59,-13 -16,-8 -29,-20 -39,-37 -10,-16 -17,-36 -21,-60 -4,-23 -6,-50 -6,-81 0,-29 2,-55 7,-79 5,-23 12,-44 22,-61 11,-17 25,-30 41,-39 17,-9 38,-14 63,-14 23,0 43,4 59,12 16,9 29,21 39,37 10,17 17,37 21,60 4,24 6,51 6,82z"/>
  <path class="fil0" d="M2930 622c0,4 0,7 -1,9 -1,3 -1,5 -2,6 -1,2 -2,3 -4,3 -1,1 -2,1 -3,1l-195 0c-2,0 -3,0 -4,-1 -1,0 -2,-1 -3,-3 -2,-1 -2,-3 -3,-6 0,-2 -1,-5 -1,-9 0,-4 1,-7 1,-9 1,-3 1,-5 2,-6 1,-2 2,-3 3,-4 2,-1 3,-1 5,-1l77 0 0 -284 -72 43c-3,2 -6,3 -8,3 -3,1 -4,0 -6,-1 -1,-1 -2,-3 -3,-6 0,-3 0,-7 0,-11 0,-3 0,-6 0,-8 0,-3 1,-5 2,-6 0,-2 1,-3 2,-4 1,-1 2,-3 4,-4l86 -55c1,0 2,-1 3,-1 1,-1 3,-1 4,-1 2,-1 4,-1 6,-1 3,0 6,0 9,0 5,0 8,0 12,0 3,1 5,1 7,2 1,1 3,1 3,2 1,2 1,3 1,4l0 328 68 0c1,0 3,0 4,1 1,1 2,2 3,4 1,1 2,3 2,6 1,2 1,5 1,9z"/>
  <path class="fil0" d="M3190 457c0,-18 -1,-35 -2,-50 -1,-14 -3,-28 -6,-39 -3,-11 -6,-21 -10,-29 -4,-8 -9,-15 -15,-20 -6,-6 -12,-9 -20,-12 -7,-2 -15,-3 -25,-3 -16,0 -29,3 -39,11 -11,8 -19,18 -24,32 -6,13 -10,29 -12,47 -3,18 -4,38 -4,58 0,28 2,52 5,71 3,20 7,36 13,48 7,12 15,21 24,27 10,5 22,8 36,8 10,0 20,-1 28,-5 8,-3 15,-8 21,-15 6,-6 11,-14 15,-23 4,-9 7,-19 9,-30 2,-11 4,-23 5,-36 1,-12 1,-26 1,-40zm51 -3c0,29 -3,55 -7,78 -5,24 -12,44 -23,61 -10,17 -24,31 -41,40 -17,9 -37,14 -62,14 -24,0 -43,-4 -59,-13 -16,-8 -29,-20 -39,-37 -10,-16 -17,-36 -21,-60 -4,-23 -6,-50 -6,-81 0,-29 2,-55 7,-79 4,-23 12,-44 22,-61 10,-17 24,-30 41,-39 17,-9 38,-14 62,-14 24,0 44,4 60,12 16,9 29,21 39,37 9,17 16,37 21,60 4,24 6,51 6,82z"/>
  <path class="fil0" d="M3489 457c0,-18 0,-35 -2,-50 -1,-14 -3,-28 -6,-39 -2,-11 -6,-21 -10,-29 -4,-8 -9,-15 -15,-20 -5,-6 -12,-9 -19,-12 -8,-2 -16,-3 -25,-3 -17,0 -30,3 -40,11 -10,8 -18,18 -24,32 -6,13 -10,29 -12,47 -2,18 -3,38 -3,58 0,28 1,52 4,71 3,20 7,36 14,48 6,12 14,21 24,27 9,5 21,8 35,8 11,0 20,-1 28,-5 9,-3 16,-8 21,-15 6,-6 11,-14 15,-23 4,-9 7,-19 9,-30 3,-11 4,-23 5,-36 1,-12 1,-26 1,-40zm51 -3c0,29 -2,55 -7,78 -4,24 -12,44 -22,61 -11,17 -24,31 -41,40 -17,9 -38,14 -63,14 -23,0 -43,-4 -59,-13 -16,-8 -29,-20 -39,-37 -10,-16 -17,-36 -21,-60 -4,-23 -6,-50 -6,-81 0,-29 2,-55 7,-79 5,-23 12,-44 22,-61 11,-17 24,-30 41,-39 17,-9 38,-14 63,-14 23,0 43,4 59,12 16,9 29,21 39,37 10,17 17,37 21,60 4,24 6,51 6,82z"/>
  <path class="fil0" d="M3828 622c0,4 -1,7 -1,9 -1,3 -1,5 -2,6 -1,2 -2,3 -4,3 -1,1 -2,1 -4,1l-195 0c-1,0 -2,0 -3,-1 -1,0 -3,-1 -4,-3 -1,-1 -1,-3 -2,-6 -1,-2 -1,-5 -1,-9 0,-4 0,-7 1,-9 1,-3 1,-5 2,-6 1,-2 2,-3 3,-4 2,-1 3,-1 4,-1l78 0 0 -284 -72 43c-3,2 -6,3 -9,3 -2,1 -3,0 -5,-1 -1,-1 -2,-3 -3,-6 0,-3 0,-7 0,-11 0,-3 0,-6 0,-8 0,-3 1,-5 1,-6 1,-2 2,-3 3,-4 1,-1 2,-3 4,-4l86 -55c1,0 2,-1 3,-1 1,-1 2,-1 4,-1 2,-1 4,-1 6,-1 3,0 5,0 9,0 4,0 8,0 11,0 3,1 6,1 8,2 1,1 2,1 3,2 1,2 1,3 1,4l0 328 67 0c2,0 3,0 5,1 1,1 2,2 3,4 1,1 2,3 2,6 1,2 1,5 1,9z"/>
  <path class="fil0" d="M4088 457c0,-18 -1,-35 -2,-50 -1,-14 -3,-28 -6,-39 -3,-11 -6,-21 -10,-29 -4,-8 -9,-15 -15,-20 -6,-6 -12,-9 -20,-12 -7,-2 -15,-3 -25,-3 -16,0 -29,3 -39,11 -11,8 -19,18 -25,32 -5,13 -9,29 -11,47 -3,18 -4,38 -4,58 0,28 2,52 5,71 3,20 7,36 13,48 7,12 15,21 24,27 10,5 22,8 36,8 10,0 20,-1 28,-5 8,-3 15,-8 21,-15 6,-6 11,-14 15,-23 3,-9 7,-19 9,-30 2,-11 4,-23 5,-36 0,-12 1,-26 1,-40zm51 -3c0,29 -3,55 -7,78 -5,24 -12,44 -23,61 -10,17 -24,31 -41,40 -17,9 -37,14 -62,14 -24,0 -43,-4 -60,-13 -16,-8 -29,-20 -38,-37 -10,-16 -17,-36 -21,-60 -4,-23 -6,-50 -6,-81 0,-29 2,-55 6,-79 5,-23 13,-44 23,-61 10,-17 24,-30 41,-39 17,-9 38,-14 62,-14 24,0 44,4 60,12 16,9 29,21 39,37 9,17 16,37 20,60 5,24 7,51 7,82z"/>
  <path class="fil0" d="M4426 622c0,4 0,7 0,9 -1,3 -2,5 -3,6 -1,2 -2,3 -3,3 -1,1 -3,1 -4,1l-195 0c-1,0 -2,0 -4,-1 -1,0 -2,-1 -3,-3 -1,-1 -2,-3 -2,-6 -1,-2 -1,-5 -1,-9 0,-4 0,-7 1,-9 0,-3 1,-5 2,-6 1,-2 2,-3 3,-4 1,-1 3,-1 4,-1l78 0 0 -284 -72 43c-4,2 -7,3 -9,3 -2,1 -4,0 -5,-1 -2,-1 -3,-3 -3,-6 0,-3 -1,-7 -1,-11 0,-3 0,-6 1,-8 0,-3 0,-5 1,-6 1,-2 1,-3 2,-4 2,-1 3,-3 5,-4l86 -55c0,0 1,-1 2,-1 2,-1 3,-1 5,-1 2,-1 4,-1 6,-1 2,0 5,0 9,0 4,0 8,0 11,0 3,1 6,1 7,2 2,1 3,1 4,2 0,2 1,3 1,4l0 328 67 0c2,0 3,0 4,1 2,1 3,2 4,4 1,1 1,3 2,6 0,2 0,5 0,9z"/>
  <path class="fil0" d="M4726 622c0,4 -1,7 -1,9 -1,3 -1,5 -2,6 -1,2 -2,3 -4,3 -1,1 -2,1 -4,1l-195 0c-1,0 -2,0 -3,-1 -1,0 -3,-1 -4,-3 -1,-1 -2,-3 -2,-6 -1,-2 -1,-5 -1,-9 0,-4 0,-7 1,-9 0,-3 1,-5 2,-6 1,-2 2,-3 3,-4 1,-1 3,-1 4,-1l78 0 0 -284 -72 43c-3,2 -6,3 -9,3 -2,1 -4,0 -5,-1 -1,-1 -2,-3 -3,-6 0,-3 0,-7 0,-11 0,-3 0,-6 0,-8 0,-3 1,-5 1,-6 1,-2 2,-3 3,-4 1,-1 2,-3 4,-4l86 -55c1,0 2,-1 3,-1 1,-1 2,-1 4,-1 2,-1 4,-1 6,-1 2,0 5,0 9,0 4,0 8,0 11,0 3,1 6,1 8,2 1,1 2,1 3,2 1,2 1,3 1,4l0 328 67 0c2,0 3,0 5,1 1,1 2,2 3,4 1,1 2,3 2,6 1,2 1,5 1,9z"/>
  <path class="fil0" d="M5025 622c0,4 0,7 -1,9 0,3 -1,5 -2,6 -1,2 -2,3 -4,3 -1,1 -2,1 -3,1l-195 0c-2,0 -3,0 -4,-1 -1,0 -2,-1 -3,-3 -1,-1 -2,-3 -3,-6 0,-2 -1,-5 -1,-9 0,-4 1,-7 1,-9 1,-3 1,-5 2,-6 1,-2 2,-3 4,-4 1,-1 2,-1 4,-1l78 0 0 -284 -73 43c-3,2 -6,3 -8,3 -3,1 -4,0 -6,-1 -1,-1 -2,-3 -2,-6 -1,-3 -1,-7 -1,-11 0,-3 0,-6 0,-8 1,-3 1,-5 2,-6 0,-2 1,-3 2,-4 1,-1 3,-3 4,-4l86 -55c1,0 2,-1 3,-1 1,-1 3,-1 4,-1 2,-1 4,-1 6,-1 3,0 6,0 9,0 5,0 9,0 12,0 3,1 5,1 7,2 2,1 3,1 3,2 1,2 1,3 1,4l0 328 68 0c1,0 3,0 4,1 1,1 2,2 3,4 1,1 2,3 2,6 1,2 1,5 1,9z"/>
  <path class="fil0" d="M5324 622c0,4 0,7 -1,9 0,3 -1,5 -2,6 -1,2 -2,3 -3,3 -1,1 -3,1 -4,1l-195 0c-1,0 -3,0 -4,-1 -1,0 -2,-1 -3,-3 -1,-1 -2,-3 -3,-6 0,-2 0,-5 0,-9 0,-4 0,-7 0,-9 1,-3 2,-5 3,-6 1,-2 2,-3 3,-4 1,-1 2,-1 4,-1l78 0 0 -284 -72 43c-4,2 -7,3 -9,3 -2,1 -4,0 -5,-1 -2,-1 -3,-3 -3,-6 -1,-3 -1,-7 -1,-11 0,-3 0,-6 1,-8 0,-3 0,-5 1,-6 0,-2 1,-3 2,-4 1,-1 3,-3 5,-4l85 -55c1,0 2,-1 3,-1 2,-1 3,-1 5,-1 1,-1 3,-1 6,-1 2,0 5,0 8,0 5,0 9,0 12,0 3,1 5,1 7,2 2,1 3,1 4,2 0,2 0,3 0,4l0 328 68 0c1,0 3,0 4,1 2,1 3,2 4,4 0,1 1,3 2,6 0,2 0,5 0,9z"/>
  <path class="fil0" d="M5584 457c0,-18 0,-35 -2,-50 -1,-14 -3,-28 -6,-39 -2,-11 -5,-21 -10,-29 -4,-8 -9,-15 -14,-20 -6,-6 -13,-9 -20,-12 -8,-2 -16,-3 -25,-3 -16,0 -30,3 -40,11 -10,8 -18,18 -24,32 -6,13 -10,29 -12,47 -2,18 -3,38 -3,58 0,28 1,52 4,71 3,20 8,36 14,48 6,12 14,21 24,27 10,5 21,8 35,8 11,0 20,-1 29,-5 8,-3 15,-8 21,-15 5,-6 10,-14 14,-23 4,-9 7,-19 9,-30 3,-11 4,-23 5,-36 1,-12 1,-26 1,-40zm51 -3c0,29 -2,55 -7,78 -4,24 -12,44 -22,61 -11,17 -24,31 -41,40 -17,9 -38,14 -63,14 -23,0 -43,-4 -59,-13 -16,-8 -29,-20 -39,-37 -10,-16 -17,-36 -21,-60 -4,-23 -6,-50 -6,-81 0,-29 2,-55 7,-79 5,-23 12,-44 22,-61 11,-17 25,-30 41,-39 17,-9 38,-14 63,-14 23,0 43,4 59,12 16,9 29,21 39,37 10,17 17,37 21,60 4,24 6,51 6,82z"/>
  <path class="fil0" d="M5923 622c0,4 0,7 -1,9 -1,3 -1,5 -2,6 -1,2 -2,3 -4,3 -1,1 -2,1 -3,1l-195 0c-2,0 -3,0 -4,-1 -1,0 -2,-1 -3,-3 -2,-1 -2,-3 -3,-6 0,-2 -1,-5 -1,-9 0,-4 1,-7 1,-9 1,-3 1,-5 2,-6 1,-2 2,-3 3,-4 2,-1 3,-1 5,-1l77 0 0 -284 -72 43c-3,2 -6,3 -8,3 -3,1 -4,0 -6,-1 -1,-1 -2,-3 -3,-6 0,-3 0,-7 0,-11 0,-3 0,-6 0,-8 0,-3 1,-5 2,-6 0,-2 1,-3 2,-4 1,-1 2,-3 4,-4l86 -55c1,0 2,-1 3,-1 1,-1 3,-1 4,-1 2,-1 4,-1 6,-1 3,0 6,0 9,0 5,0 8,0 12,0 3,1 5,1 7,2 1,1 3,1 3,2 1,2 1,3 1,4l0 328 68 0c1,0 3,0 4,1 1,1 2,2 3,4 1,1 2,3 2,6 1,2 1,5 1,9z"/>
  <path class="fil0" d="M6183 457c0,-18 -1,-35 -2,-50 -1,-14 -3,-28 -6,-39 -3,-11 -6,-21 -10,-29 -4,-8 -9,-15 -15,-20 -6,-6 -12,-9 -20,-12 -7,-2 -15,-3 -25,-3 -16,0 -29,3 -39,11 -11,8 -19,18 -24,32 -6,13 -10,29 -12,47 -3,18 -4,38 -4,58 0,28 2,52 5,71 3,20 7,36 13,48 7,12 15,21 24,27 10,5 22,8 36,8 10,0 20,-1 28,-5 8,-3 15,-8 21,-15 6,-6 11,-14 15,-23 4,-9 7,-19 9,-30 2,-11 4,-23 5,-36 1,-12 1,-26 1,-40zm51 -3c0,29 -3,55 -7,78 -5,24 -12,44 -23,61 -10,17 -24,31 -41,40 -17,9 -37,14 -62,14 -24,0 -43,-4 -59,-13 -16,-8 -29,-20 -39,-37 -10,-16 -17,-36 -21,-60 -4,-23 -6,-50 -6,-81 0,-29 2,-55 7,-79 4,-23 12,-44 22,-61 10,-17 24,-30 41,-39 17,-9 38,-14 62,-14 24,0 44,4 60,12 16,9 29,21 39,37 9,17 16,37 21,60 4,24 6,51 6,82z"/>
  <path class="fil0" d="M6522 622c0,4 -1,7 -1,9 -1,3 -2,5 -3,6 -1,2 -2,3 -3,3 -1,1 -3,1 -4,1l-195 0c-1,0 -2,0 -4,-1 -1,0 -2,-1 -3,-3 -1,-1 -2,-3 -2,-6 -1,-2 -1,-5 -1,-9 0,-4 0,-7 1,-9 0,-3 1,-5 2,-6 1,-2 2,-3 3,-4 1,-1 3,-1 4,-1l78 0 0 -284 -72 43c-4,2 -7,3 -9,3 -2,1 -4,0 -5,-1 -1,-1 -2,-3 -3,-6 0,-3 -1,-7 -1,-11 0,-3 1,-6 1,-8 0,-3 1,-5 1,-6 1,-2 2,-3 3,-4 1,-1 2,-3 4,-4l86 -55c0,0 1,-1 3,-1 1,-1 2,-1 4,-1 2,-1 4,-1 6,-1 2,0 5,0 9,0 4,0 8,0 11,0 3,1 6,1 7,2 2,1 3,1 4,2 0,2 1,3 1,4l0 328 67 0c2,0 3,0 4,1 2,1 3,2 4,4 1,1 1,3 2,6 0,2 1,5 1,9z"/>
  <path class="fil0" d="M6782 457c0,-18 -1,-35 -2,-50 -2,-14 -4,-28 -6,-39 -3,-11 -6,-21 -10,-29 -5,-8 -10,-15 -15,-20 -6,-6 -13,-9 -20,-12 -7,-2 -16,-3 -25,-3 -16,0 -30,3 -40,11 -10,8 -18,18 -24,32 -6,13 -10,29 -12,47 -2,18 -3,38 -3,58 0,28 1,52 4,71 3,20 8,36 14,48 6,12 14,21 24,27 10,5 21,8 35,8 11,0 21,-1 29,-5 8,-3 15,-8 21,-15 6,-6 10,-14 14,-23 4,-9 7,-19 10,-30 2,-11 3,-23 4,-36 1,-12 2,-26 2,-40zm50 -3c0,29 -2,55 -6,78 -5,24 -12,44 -23,61 -10,17 -24,31 -41,40 -17,9 -38,14 -63,14 -23,0 -43,-4 -59,-13 -16,-8 -29,-20 -39,-37 -9,-16 -16,-36 -21,-60 -4,-23 -6,-50 -6,-81 0,-29 3,-55 7,-79 5,-23 12,-44 23,-61 10,-17 24,-30 41,-39 17,-9 37,-14 62,-14 24,0 43,4 59,12 16,9 29,21 39,37 10,17 17,37 21,60 4,24 6,51 6,82z"/>
  <path class="fil0" d="M7120 622c0,4 0,7 -1,9 0,3 -1,5 -2,6 -1,2 -2,3 -3,3 -2,1 -3,1 -4,1l-195 0c-2,0 -3,0 -4,-1 -1,0 -2,-1 -3,-3 -1,-1 -2,-3 -3,-6 0,-2 -1,-5 -1,-9 0,-4 1,-7 1,-9 1,-3 2,-5 2,-6 1,-2 2,-3 4,-4 1,-1 2,-1 4,-1l78 0 0 -284 -72 43c-4,2 -7,3 -9,3 -2,1 -4,0 -6,-1 -1,-1 -2,-3 -2,-6 -1,-3 -1,-7 -1,-11 0,-3 0,-6 0,-8 1,-3 1,-5 2,-6 0,-2 1,-3 2,-4 1,-1 3,-3 4,-4l86 -55c1,0 2,-1 3,-1 1,-1 3,-1 4,-1 2,-1 4,-1 7,-1 2,0 5,0 8,0 5,0 9,0 12,0 3,1 5,1 7,2 2,1 3,1 3,2 1,2 1,3 1,4l0 328 68 0c1,0 3,0 4,1 1,1 3,2 3,4 1,1 2,3 2,6 1,2 1,5 1,9z"/>
  <path class="fil0" d="M7380 457c0,-18 0,-35 -2,-50 -1,-14 -3,-28 -6,-39 -2,-11 -6,-21 -10,-29 -4,-8 -9,-15 -15,-20 -5,-6 -12,-9 -19,-12 -8,-2 -16,-3 -25,-3 -17,0 -30,3 -40,11 -10,8 -18,18 -24,32 -6,13 -10,29 -12,47 -2,18 -3,38 -3,58 0,28 1,52 4,71 3,20 7,36 14,48 6,12 14,21 24,27 9,5 21,8 35,8 11,0 20,-1 28,-5 8,-3 16,-8 21,-15 6,-6 11,-14 15,-23 4,-9 7,-19 9,-30 2,-11 4,-23 5,-36 1,-12 1,-26 1,-40zm51 -3c0,29 -2,55 -7,78 -4,24 -12,44 -22,61 -11,17 -25,31 -41,40 -17,9 -38,14 -63,14 -23,0 -43,-4 -59,-13 -16,-8 -29,-20 -39,-37 -10,-16 -17,-36 -21,-60 -4,-23 -6,-50 -6,-81 0,-29 2,-55 7,-79 4,-23 12,-44 22,-61 11,-17 24,-30 41,-39 17,-9 38,-14 63,-14 23,0 43,4 59,12 16,9 29,21 39,37 10,17 17,37 21,60 4,24 6,51 6,82z"/>
  <path class="fil0" d="M7719 622c0,4 -1,7 -1,9 -1,3 -2,5 -2,6 -1,2 -3,3 -4,3 -1,1 -2,1 -4,1l-195 0c-1,0 -2,0 -3,-1 -2,0 -3,-1 -4,-3 -1,-1 -2,-3 -2,-6 -1,-2 -1,-5 -1,-9 0,-4 0,-7 1,-9 0,-3 1,-5 2,-6 1,-2 2,-3 3,-4 1,-1 3,-1 4,-1l78 0 0 -284 -72 43c-4,2 -6,3 -9,3 -2,1 -4,0 -5,-1 -1,-1 -2,-3 -3,-6 0,-3 0,-7 0,-11 0,-3 0,-6 0,-8 0,-3 1,-5 1,-6 1,-2 2,-3 3,-4 1,-1 2,-3 4,-4l86 -55c1,0 2,-1 3,-1 1,-1 2,-1 4,-1 2,-1 4,-1 6,-1 2,0 5,0 9,0 4,0 8,0 11,0 3,1 6,1 7,2 2,1 3,1 4,2 1,2 1,3 1,4l0 328 67 0c2,0 3,0 5,1 1,1 2,2 3,4 1,1 1,3 2,6 0,2 1,5 1,9z"/>
  <path class="fil0" d="M7979 457c0,-18 -1,-35 -2,-50 -2,-14 -4,-28 -6,-39 -3,-11 -6,-21 -10,-29 -4,-8 -9,-15 -15,-20 -6,-6 -12,-9 -20,-12 -7,-2 -16,-3 -25,-3 -16,0 -29,3 -40,11 -10,8 -18,18 -24,32 -5,13 -10,29 -12,47 -2,18 -3,38 -3,58 0,28 2,52 5,71 2,20 7,36 13,48 6,12 14,21 24,27 10,5 22,8 35,8 11,0 21,-1 29,-5 8,-3 15,-8 21,-15 6,-6 11,-14 15,-23 3,-9 6,-19 9,-30 2,-11 4,-23 4,-36 1,-12 2,-26 2,-40zm51 -3c0,29 -3,55 -7,78 -5,24 -12,44 -23,61 -10,17 -24,31 -41,40 -17,9 -38,14 -62,14 -24,0 -44,-4 -60,-13 -16,-8 -29,-20 -38,-37 -10,-16 -17,-36 -21,-60 -4,-23 -7,-50 -7,-81 0,-29 3,-55 7,-79 5,-23 12,-44 23,-61 10,-17 24,-30 41,-39 17,-9 37,-14 62,-14 24,0 44,4 60,12 16,9 29,21 38,37 10,17 17,37 21,60 4,24 7,51 7,82z"/>
  <path class="fil0" d="M8317 622c0,4 0,7 -1,9 0,3 -1,5 -2,6 -1,2 -2,3 -3,3 -1,1 -3,1 -4,1l-195 0c-1,0 -3,0 -4,-1 -1,0 -2,-1 -3,-3 -1,-1 -2,-3 -3,-6 0,-2 0,-5 0,-9 0,-4 0,-7 0,-9 1,-3 2,-5 3,-6 1,-2 2,-3 3,-4 1,-1 2,-1 4,-1l78 0 0 -284 -72 43c-4,2 -7,3 -9,3 -2,1 -4,0 -5,-1 -2,-1 -3,-3 -3,-6 -1,-3 -1,-7 -1,-11 0,-3 0,-6 1,-8 0,-3 0,-5 1,-6 0,-2 1,-3 2,-4 1,-1 3,-3 5,-4l85 -55c1,0 2,-1 3,-1 2,-1 3,-1 5,-1 1,-1 3,-1 6,-1 2,0 5,0 8,0 5,0 9,0 12,0 3,1 5,1 7,2 2,1 3,1 4,2 0,2 0,3 0,4l0 328 68 0c1,0 3,0 4,1 2,1 3,2 4,4 0,1 1,3 2,6 0,2 0,5 0,9z"/>
  <path class="fil0" d="M8577 457c0,-18 0,-35 -2,-50 -1,-14 -3,-28 -6,-39 -2,-11 -6,-21 -10,-29 -4,-8 -9,-15 -15,-20 -5,-6 -12,-9 -19,-12 -8,-2 -16,-3 -25,-3 -17,0 -30,3 -40,11 -10,8 -18,18 -24,32 -6,13 -10,29 -12,47 -2,18 -3,38 -3,58 0,28 1,52 4,71 3,20 8,36 14,48 6,12 14,21 24,27 9,5 21,8 35,8 11,0 20,-1 28,-5 9,-3 16,-8 22,-15 5,-6 10,-14 14,-23 4,-9 7,-19 9,-30 3,-11 4,-23 5,-36 1,-12 1,-26 1,-40zm51 -3c0,29 -2,55 -7,78 -4,24 -12,44 -22,61 -11,17 -24,31 -41,40 -17,9 -38,14 -63,14 -23,0 -43,-4 -59,-13 -16,-8 -29,-20 -39,-37 -10,-16 -17,-36 -21,-60 -4,-23 -6,-50 -6,-81 0,-29 2,-55 7,-79 5,-23 12,-44 22,-61 11,-17 25,-30 41,-39 17,-9 38,-14 63,-14 23,0 43,4 59,12 16,9 29,21 39,37 10,17 17,37 21,60 4,24 6,51 6,82z"/>
  <path class="fil0" d="M8916 622c0,4 0,7 -1,9 -1,3 -1,5 -2,6 -1,2 -2,3 -4,3 -1,1 -2,1 -3,1l-195 0c-2,0 -3,0 -4,-1 -1,0 -2,-1 -3,-3 -2,-1 -2,-3 -3,-6 0,-2 -1,-5 -1,-9 0,-4 1,-7 1,-9 1,-3 1,-5 2,-6 1,-2 2,-3 3,-4 2,-1 3,-1 5,-1l77 0 0 -284 -72 43c-3,2 -6,3 -8,3 -3,1 -4,0 -6,-1 -1,-1 -2,-3 -3,-6 0,-3 0,-7 0,-11 0,-3 0,-6 0,-8 0,-3 1,-5 2,-6 0,-2 1,-3 2,-4 1,-1 2,-3 4,-4l86 -55c1,0 2,-1 3,-1 1,-1 3,-1 4,-1 2,-1 4,-1 6,-1 3,0 6,0 9,0 5,0 8,0 12,0 3,1 5,1 7,2 1,1 3,1 3,2 1,2 1,3 1,4l0 328 68 0c1,0 3,0 4,1 1,1 2,2 3,4 1,1 2,3 2,6 1,2 1,5 1,9z"/>
  <path class="fil0" d="M9215 622c0,4 0,7 -1,9 0,3 -1,5 -2,6 -1,2 -2,3 -3,3 -2,1 -3,1 -4,1l-195 0c-1,0 -3,0 -4,-1 -1,0 -2,-1 -3,-3 -1,-1 -2,-3 -3,-6 0,-2 0,-5 0,-9 0,-4 0,-7 0,-9 1,-3 2,-5 3,-6 0,-2 1,-3 3,-4 1,-1 2,-1 4,-1l78 0 0 -284 -72 43c-4,2 -7,3 -9,3 -2,1 -4,0 -5,-1 -2,-1 -3,-3 -3,-6 -1,-3 -1,-7 -1,-11 0,-3 0,-6 1,-8 0,-3 0,-5 1,-6 0,-2 1,-3 2,-4 1,-1 3,-3 4,-4l86 -55c1,0 2,-1 3,-1 1,-1 3,-1 5,-1 1,-1 3,-1 6,-1 2,0 5,0 8,0 5,0 9,0 12,0 3,1 5,1 7,2 2,1 3,1 4,2 0,2 0,3 0,4l0 328 68 0c1,0 3,0 4,1 1,1 3,2 3,4 1,1 2,3 3,6 0,2 0,5 0,9z"/>
  <path class="fil0" d="M9475 457c0,-18 0,-35 -2,-50 -1,-14 -3,-28 -6,-39 -2,-11 -6,-21 -10,-29 -4,-8 -9,-15 -15,-20 -5,-6 -12,-9 -19,-12 -8,-2 -16,-3 -25,-3 -17,0 -30,3 -40,11 -10,8 -18,18 -24,32 -6,13 -10,29 -12,47 -2,18 -3,38 -3,58 0,28 1,52 4,71 3,20 7,36 14,48 6,12 14,21 24,27 9,5 21,8 35,8 11,0 20,-1 28,-5 9,-3 16,-8 21,-15 6,-6 11,-14 15,-23 4,-9 7,-19 9,-30 3,-11 4,-23 5,-36 1,-12 1,-26 1,-40zm51 -3c0,29 -2,55 -7,78 -4,24 -12,44 -22,61 -11,17 -24,31 -41,40 -17,9 -38,14 -63,14 -23,0 -43,-4 -59,-13 -16,-8 -29,-20 -39,-37 -10,-16 -17,-36 -21,-60 -4,-23 -6,-50 -6,-81 0,-29 2,-55 7,-79 4,-23 12,-44 22,-61 11,-17 24,-30 41,-39 17,-9 38,-14 63,-14 23,0 43,4 59,12 16,9 29,21 39,37 10,17 17,37 21,60 4,24 6,51 6,82z"/>
  <path class="fil0" d="M9814 622c0,4 -1,7 -1,9 -1,3 -1,5 -2,6 -1,2 -2,3 -4,3 -1,1 -2,1 -4,1l-195 0c-1,0 -2,0 -3,-1 -1,0 -3,-1 -4,-3 -1,-1 -1,-3 -2,-6 -1,-2 -1,-5 -1,-9 0,-4 0,-7 1,-9 1,-3 1,-5 2,-6 1,-2 2,-3 3,-4 2,-1 3,-1 4,-1l78 0 0 -284 -72 43c-3,2 -6,3 -9,3 -2,1 -4,0 -5,-1 -1,-1 -2,-3 -3,-6 0,-3 0,-7 0,-11 0,-3 0,-6 0,-8 0,-3 1,-5 1,-6 1,-2 2,-3 3,-4 1,-1 2,-3 4,-4l86 -55c1,0 2,-1 3,-1 1,-1 2,-1 4,-1 2,-1 4,-1 6,-1 3,0 5,0 9,0 4,0 8,0 11,0 3,1 6,1 8,2 1,1 3,1 3,2 1,2 1,3 1,4l0 328 67 0c2,0 3,0 5,1 1,1 2,2 3,4 1,1 2,3 2,6 1,2 1,5 1,9z"/>
  <path class="fil0" d="M10074 457c0,-18 -1,-35 -2,-50 -1,-14 -3,-28 -6,-39 -3,-11 -6,-21 -10,-29 -4,-8 -9,-15 -15,-20 -6,-6 -12,-9 -20,-12 -7,-2 -15,-3 -25,-3 -16,0 -29,3 -39,11 -11,8 -19,18 -25,32 -5,13 -9,29 -12,47 -2,18 -3,38 -3,58 0,28 2,52 5,71 3,20 7,36 13,48 7,12 15,21 24,27 10,5 22,8 36,8 10,0 20,-1 28,-5 8,-3 15,-8 21,-15 6,-6 11,-14 15,-23 3,-9 7,-19 9,-30 2,-11 4,-23 5,-36 0,-12 1,-26 1,-40zm51 -3c0,29 -3,55 -7,78 -5,24 -12,44 -23,61 -10,17 -24,31 -41,40 -17,9 -37,14 -62,14 -24,0 -44,-4 -60,-13 -16,-8 -29,-20 -38,-37 -10,-16 -17,-36 -21,-60 -4,-23 -6,-50 -6,-81 0,-29 2,-55 6,-79 5,-23 13,-44 23,-61 10,-17 24,-30 41,-39 17,-9 38,-14 62,-14 24,0 44,4 60,12 16,9 29,21 39,37 9,17 16,37 20,60 5,24 7,51 7,82z"/>
  <path class="fil0" d="M10412 622c0,4 0,7 0,9 -1,3 -2,5 -3,6 -1,2 -2,3 -3,3 -1,1 -3,1 -4,1l-195 0c-1,0 -2,0 -4,-1 -1,0 -2,-1 -3,-3 -1,-1 -2,-3 -2,-6 -1,-2 -1,-5 -1,-9 0,-4 0,-7 1,-9 0,-3 1,-5 2,-6 1,-2 2,-3 3,-4 1,-1 3,-1 4,-1l78 0 0 -284 -72 43c-4,2 -7,3 -9,3 -2,1 -4,0 -5,-1 -2,-1 -3,-3 -3,-6 0,-3 -1,-7 -1,-11 0,-3 0,-6 1,-8 0,-3 0,-5 1,-6 1,-2 1,-3 2,-4 2,-1 3,-3 5,-4l86 -55c0,0 1,-1 2,-1 2,-1 3,-1 5,-1 2,-1 4,-1 6,-1 2,0 5,0 8,0 5,0 9,0 12,0 3,1 6,1 7,2 2,1 3,1 4,2 0,2 1,3 1,4l0 328 67 0c2,0 3,0 4,1 2,1 3,2 4,4 1,1 1,3 2,6 0,2 0,5 0,9z"/>
  <path class="fil0" d="M10672 457c0,-18 0,-35 -2,-50 -1,-14 -3,-28 -5,-39 -3,-11 -6,-21 -11,-29 -4,-8 -9,-15 -14,-20 -6,-6 -13,-9 -20,-12 -8,-2 -16,-3 -25,-3 -16,0 -30,3 -40,11 -10,8 -18,18 -24,32 -6,13 -10,29 -12,47 -2,18 -3,38 -3,58 0,28 1,52 4,71 3,20 8,36 14,48 6,12 14,21 24,27 10,5 21,8 35,8 11,0 20,-1 29,-5 8,-3 15,-8 21,-15 5,-6 10,-14 14,-23 4,-9 7,-19 9,-30 3,-11 4,-23 5,-36 1,-12 1,-26 1,-40zm51 -3c0,29 -2,55 -7,78 -4,24 -12,44 -22,61 -11,17 -24,31 -41,40 -17,9 -38,14 -63,14 -23,0 -43,-4 -59,-13 -16,-8 -29,-20 -39,-37 -10,-16 -17,-36 -21,-60 -4,-23 -6,-50 -6,-81 0,-29 2,-55 7,-79 5,-23 12,-44 23,-61 10,-17 24,-30 41,-39 16,-9 37,-14 62,-14 23,0 43,4 59,12 16,9 29,21 39,37 10,17 17,37 21,60 4,24 6,51 6,82z"/>
  <path class="fil0" d="M11011 622c0,4 0,7 -1,9 0,3 -1,5 -2,6 -1,2 -2,3 -3,3 -2,1 -3,1 -4,1l-195 0c-2,0 -3,0 -4,-1 -1,0 -2,-1 -3,-3 -1,-1 -2,-3 -3,-6 0,-2 -1,-5 -1,-9 0,-4 1,-7 1,-9 1,-3 1,-5 2,-6 1,-2 2,-3 4,-4 1,-1 2,-1 4,-1l78 0 0 -284 -73 43c-3,2 -6,3 -8,3 -3,1 -4,0 -6,-1 -1,-1 -2,-3 -2,-6 -1,-3 -1,-7 -1,-11 0,-3 0,-6 0,-8 1,-3 1,-5 2,-6 0,-2 1,-3 2,-4 1,-1 3,-3 4,-4l86 -55c1,0 2,-1 3,-1 1,-1 3,-1 4,-1 2,-1 4,-1 6,-1 3,0 6,0 9,0 5,0 9,0 12,0 3,1 5,1 7,2 2,1 3,1 3,2 1,2 1,3 1,4l0 328 68 0c1,0 3,0 4,1 1,1 2,2 3,4 1,1 2,3 2,6 1,2 1,5 1,9z"/>
 </g>
</svg>
