<?xml version="1.0" encoding="UTF-8"?>
<!DOCTYPE svg PUBLIC "-//W3C//DTD SVG 1.1//EN" "http://www.w3.org/Graphics/SVG/1.1/DTD/svg11.dtd">
<!-- Creator: CorelDRAW X6 -->
<svg xmlns="http://www.w3.org/2000/svg" xml:space="preserve" width="195mm" height="110mm" version="1.1" style="shape-rendering:geometricPrecision; text-rendering:geometricPrecision; image-rendering:optimizeQuality; fill-rule:evenodd; clip-rule:evenodd"
viewBox="0 0 19500 11000"
 xmlns:xlink="http://www.w3.org/1999/xlink">
 <defs>
  <style type="text/css">
   <![CDATA[
    .fil9 {fill:#34BDE3;fill-rule:nonzero}
    .fil6 {fill:#3A4455;fill-rule:nonzero}
    .fil0 {fill:#414D5F;fill-rule:nonzero}
    .fil16 {fill:#51A1D9;fill-rule:nonzero}
    .fil14 {fill:#5DA83A;fill-rule:nonzero}
    .fil12 {fill:#605C5C;fill-rule:nonzero}
    .fil3 {fill:#888684;fill-rule:nonzero}
    .fil17 {fill:#946328;fill-rule:nonzero}
    .fil1 {fill:#A09D9B;fill-rule:nonzero}
    .fil7 {fill:#A72834;fill-rule:nonzero}
    .fil18 {fill:#A74793;fill-rule:nonzero}
    .fil2 {fill:#BDB8B9;fill-rule:nonzero}
    .fil11 {fill:#D1CFCF;fill-rule:nonzero}
    .fil15 {fill:#E94668;fill-rule:nonzero}
    .fil8 {fill:#EFB10E;fill-rule:nonzero}
    .fil10 {fill:#F6F5F6;fill-rule:nonzero}
    .fil4 {fill:#F7F6F9;fill-rule:nonzero}
    .fil13 {fill:#FECC38;fill-rule:nonzero}
    .fil5 {fill:#FEFEFE;fill-rule:nonzero}
   ]]>
  </style>
 </defs>
 <g id="Layer_x0020_1">
  <metadata id="CorelCorpID_0Corel-Layer"/>
  <path class="fil0" d="M17635 10424c0,252 -204,456 -457,456l-14848 0c-252,0 -456,-204 -456,-456l0 -9908c0,-252 204,-456 456,-456l14848 0c253,0 457,204 457,456l0 9908z"/>
  <path class="fil1" d="M19323 10525c0,196 -159,355 -355,355l-18427 0c-196,0 -355,-159 -355,-355 0,-196 159,-356 355,-356l18427 0c196,0 355,160 355,356z"/>
  <polygon class="fil2" points="186,10608 19323,10608 19323,10170 186,10170 "/>
  <path class="fil3" d="M12497 10170c0,121 -98,219 -218,219l-5049 0c-120,0 -218,-98 -218,-219l5485 0z"/>
  <polygon class="fil4" points="2529,10170 16979,10170 16979,673 2529,673 "/>
  <polygon class="fil5" points="2751,10143 16812,10143 16812,1507 2751,1507 "/>
  <polygon class="fil6" points="2707,1512 16769,1512 16769,828 2707,828 "/>
  <path class="fil7" d="M3255 1147c0,93 -75,167 -167,167 -93,0 -168,-74 -168,-167 0,-92 75,-168 168,-168 92,0 167,76 167,168z"/>
  <path class="fil8" d="M3924 1147c0,93 -75,167 -167,167 -93,0 -168,-74 -168,-167 0,-92 75,-168 168,-168 92,0 167,76 167,168z"/>
  <path class="fil9" d="M4593 1147c0,93 -75,167 -167,167 -93,0 -168,-74 -168,-167 0,-92 75,-168 168,-168 92,0 167,76 167,168z"/>
  <path class="fil10" d="M16222 1170c0,93 -60,167 -136,167l-10579 0c-75,0 -135,-74 -135,-167 0,-93 60,-167 135,-167l10579 0c76,0 136,74 136,167z"/>
  <polygon class="fil11" points="3170,2699 3726,2699 3726,2144 3170,2144 "/>
  <polygon class="fil11" points="3172,3761 3728,3761 3728,3205 3172,3205 "/>
  <polygon class="fil11" points="3165,4817 3721,4817 3721,4261 3165,4261 "/>
  <polygon class="fil11" points="3167,5900 3723,5900 3723,5344 3167,5344 "/>
  <polygon class="fil11" points="3167,9198 3723,9198 3723,8642 3167,8642 "/>
  <polygon class="fil11" points="3165,8103 3721,8103 3721,7547 3165,7547 "/>
  <polygon class="fil11" points="3167,6984 3723,6984 3723,6429 3167,6429 "/>
  <polygon class="fil12" points="4996,1910 4996,2095 4469,2349 4996,2603 4996,2788 4271,2427 4271,2270 "/>
  <polygon class="fil12" points="5059,2471 5793,2471 5793,2227 5059,2227 "/>
  <polygon class="fil12" points="5876,2788 5876,2602 6403,2348 5876,2093 5876,1910 6601,2270 6601,2427 "/>
  <polygon class="fil13" points="4168,3650 7518,3650 7518,3301 4168,3301 "/>
  <polygon class="fil14" points="4168,4725 5861,4725 5861,4377 4168,4377 "/>
  <polygon class="fil15" points="4164,5779 4985,5779 4985,5430 4164,5430 "/>
  <polygon class="fil13" points="4157,6861 6326,6861 6326,6513 4157,6513 "/>
  <polygon class="fil14" points="4153,8010 8724,8010 8724,7661 4153,7661 "/>
  <polygon class="fil16" points="5309,5786 7242,5786 7242,5437 5309,5437 "/>
  <polygon class="fil17" points="6148,4718 8975,4718 8975,4369 6148,4369 "/>
  <polygon class="fil17" points="6809,6861 9506,6861 9506,6513 6809,6513 "/>
  <polygon class="fil15" points="9135,7999 12485,7999 12485,7650 9135,7650 "/>
  <polygon class="fil18" points="7634,5786 10984,5786 10984,5437 7634,5437 "/>
  <polygon class="fil12" points="4976,8465 4976,8650 4449,8904 4976,9158 4976,9343 4251,8982 4251,8825 "/>
  <polygon class="fil12" points="5857,9343 5857,9157 6384,8903 5857,8648 5857,8465 6582,8825 6582,8982 "/>
  <polygon class="fil12" points="5296,9343 5108,9343 5550,8475 5737,8475 "/>
  <polygon class="fil15" points="9212,4710 10446,4710 10446,4362 9212,4362 "/>
  <polygon class="fil16" points="9887,6858 11820,6858 11820,6509 9887,6509 "/>
  <polygon class="fil16" points="10788,4721 12972,4721 12972,4372 10788,4372 "/>
  <polygon class="fil13" points="13397,4710 14621,4710 14621,4362 13397,4362 "/>
  <polygon class="fil13" points="11326,5779 12147,5779 12147,5430 11326,5430 "/>
  <polygon class="fil15" points="12143,6847 13510,6847 13510,6498 12143,6498 "/>
  <polygon class="fil17" points="12939,7991 13760,7991 13760,7643 12939,7643 "/>
  <polygon class="fil14" points="12514,5768 15679,5768 15679,5419 12514,5419 "/>
  <polygon class="fil18" points="13844,6847 16137,6847 16137,6498 13844,6498 "/>
 </g>
</svg>
