<?xml version="1.0" encoding="UTF-8"?>
<!DOCTYPE svg PUBLIC "-//W3C//DTD SVG 1.1//EN" "http://www.w3.org/Graphics/SVG/1.1/DTD/svg11.dtd">
<!-- Creator: CorelDRAW X6 -->
<svg xmlns="http://www.w3.org/2000/svg" xml:space="preserve" width="180.5mm" height="181.5mm" version="1.1" style="shape-rendering:geometricPrecision; text-rendering:geometricPrecision; image-rendering:optimizeQuality; fill-rule:evenodd; clip-rule:evenodd"
viewBox="0 0 18050 18150"
 xmlns:xlink="http://www.w3.org/1999/xlink">
 <defs>
  <style type="text/css">
   <![CDATA[
    .str1 {stroke:#2B2A45;stroke-width:42.95}
    .str2 {stroke:#2B2A45;stroke-width:44.66}
    .str0 {stroke:#2B2A45;stroke-width:47.61;stroke-linecap:round}
    .str3 {stroke:#E8906A;stroke-width:47.61}
    .str4 {stroke:#2B2A45;stroke-width:108.28}
    .str5 {stroke:#FEFEFE;stroke-width:108.28}
    .fil35 {fill:none;fill-rule:nonzero}
    .fil26 {fill:#2B2A45;fill-rule:nonzero}
    .fil33 {fill:#2E2C32;fill-rule:nonzero}
    .fil3 {fill:#322F39;fill-rule:nonzero}
    .fil39 {fill:#383443;fill-rule:nonzero}
    .fil13 {fill:#383D69;fill-rule:nonzero}
    .fil6 {fill:#39558F;fill-rule:nonzero}
    .fil5 {fill:#3D3B45;fill-rule:nonzero}
    .fil40 {fill:#454056;fill-rule:nonzero}
    .fil15 {fill:#514D71;fill-rule:nonzero}
    .fil22 {fill:#575CA4;fill-rule:nonzero}
    .fil41 {fill:#57639E;fill-rule:nonzero}
    .fil31 {fill:#652840;fill-rule:nonzero}
    .fil16 {fill:#658CC8;fill-rule:nonzero}
    .fil0 {fill:#7A7487;fill-rule:nonzero}
    .fil27 {fill:#7D778C;fill-rule:nonzero}
    .fil10 {fill:#849DD1;fill-rule:nonzero}
    .fil23 {fill:#89838E;fill-rule:nonzero}
    .fil9 {fill:#A9A2B4;fill-rule:nonzero}
    .fil4 {fill:#AEAECD;fill-rule:nonzero}
    .fil34 {fill:#B06942;fill-rule:nonzero}
    .fil28 {fill:#C4BED0;fill-rule:nonzero}
    .fil29 {fill:#C55341;fill-rule:nonzero}
    .fil20 {fill:#C8E0F6;fill-rule:nonzero}
    .fil25 {fill:#C9C4C8;fill-rule:nonzero}
    .fil12 {fill:#D1D1D6;fill-rule:nonzero}
    .fil14 {fill:#D9DBEF;fill-rule:nonzero}
    .fil8 {fill:#DB3737;fill-rule:nonzero}
    .fil19 {fill:#E2E3F3;fill-rule:nonzero}
    .fil32 {fill:#E85142;fill-rule:nonzero}
    .fil30 {fill:#E8906A;fill-rule:nonzero}
    .fil24 {fill:#E9E9E9;fill-rule:nonzero}
    .fil18 {fill:#EB5A6C;fill-rule:nonzero}
    .fil11 {fill:#EEB24E;fill-rule:nonzero}
    .fil21 {fill:#EFF0F9;fill-rule:nonzero}
    .fil7 {fill:#F2F4F5;fill-rule:nonzero}
    .fil1 {fill:#F4B69F;fill-rule:nonzero}
    .fil36 {fill:#F9D2CD;fill-rule:nonzero}
    .fil17 {fill:#FAFBFD;fill-rule:nonzero}
    .fil37 {fill:#FBD5C1;fill-rule:nonzero}
    .fil38 {fill:#FCEAE1;fill-rule:nonzero}
    .fil2 {fill:#FEFEFE;fill-rule:nonzero}
   ]]>
  </style>
 </defs>
 <g id="Layer_x0020_1">
  <metadata id="CorelCorpID_0Corel-Layer"/>
  <g>
   <polygon class="fil0" points="1569,18166 1569,17959 17370,17959 17370,18166 "/>
  </g>
  <path class="fil1" d="M9309 8668l-757 217c-55,16 -112,-16 -128,-71l-1 -2c-15,-54 16,-112 71,-128l757 -217c55,-15 112,17 128,71l1 2c15,55 -17,112 -71,128z"/>
  <path class="fil1" d="M9131 8909l-670 192c-37,11 -77,-11 -88,-49l-18 -63c-11,-38 11,-77 49,-88l670 -192c38,-11 77,11 88,48l18 64c11,38 -11,77 -49,88z"/>
  <path class="fil1" d="M9304 9050l-782 224c-37,11 -77,-11 -88,-49l-18 -64c-11,-37 11,-77 49,-88l781 -224c38,-10 77,12 88,49l18 64c11,38 -11,77 -48,88z"/>
  <path class="fil1" d="M9871 9112l-772 154c-56,11 -110,-25 -121,-81l-1 -2c-11,-56 25,-110 81,-122l773 -153c55,-12 110,25 121,81l1 2c11,55 -26,110 -82,121z"/>
  <path class="fil1" d="M8733 8624c8,-3 94,-45 186,-90 160,-78 337,-117 515,-113l341 6c0,0 65,566 41,560 -23,-6 -750,125 -750,125l-333 -488z"/>
  <polygon class="fil2" points="9981,9243 9656,9243 9656,8372 9981,8372 "/>
  <path class="fil3" d="M11579 9343c668,0 946,-309 1176,-808l22 -48 580 -2456 -1019 -241 -555 2352c-44,90 -69,129 -81,145 -18,4 -57,9 -134,8l-1717 -17 -10 1048 1716 17c8,0 15,0 22,0z"/>
  <path class="fil4" d="M4858 9541l4172 0 -1113 -4015c-32,-116 -138,-197 -258,-197l-3909 0c-177,0 -306,170 -258,341l994 3588c46,167 198,283 372,283z"/>
  <path class="fil5" d="M5090 9450l4173 0 -1113 -4015c-32,-116 -138,-196 -258,-196l-3909 0c-178,0 -306,169 -259,340l995 3588c46,167 198,283 371,283z"/>
  <path class="fil6" d="M3949 5737l982 3535 4135 0 -57 -205 -961 -3463c-30,-108 -128,-182 -240,-182l-3619 0c-165,0 -283,157 -240,315z"/>
  <polygon class="fil7" points="6385,5820 7658,5820 7630,5730 6357,5730 "/>
  <polygon class="fil8" points="5231,5820 5833,5820 5805,5730 5202,5730 "/>
  <polygon class="fil9" points="4360,5820 4963,5820 4935,5730 4332,5730 "/>
  <polygon class="fil10" points="5034,5820 5177,5820 5149,5730 5006,5730 "/>
  <polygon class="fil9" points="5903,5820 6325,5820 6297,5730 5875,5730 "/>
  <polygon class="fil10" points="7110,8111 8383,8111 8355,8021 7082,8021 "/>
  <polygon class="fil9" points="5956,8111 6559,8111 6530,8021 5928,8021 "/>
  <polygon class="fil11" points="5086,8110 5689,8110 5660,8021 5058,8021 "/>
  <polygon class="fil10" points="5760,8110 5902,8110 5874,8021 5731,8021 "/>
  <polygon class="fil9" points="6628,8111 7051,8111 7022,8021 6600,8021 "/>
  <polygon class="fil12" points="7271,7347 6669,7347 6640,7257 7243,7257 "/>
  <polygon class="fil11" points="8141,7347 7539,7347 7510,7257 8113,7257 "/>
  <polygon class="fil10" points="7468,7347 7325,7347 7297,7257 7439,7257 "/>
  <polygon class="fil8" points="7301,6202 7779,6202 7750,6112 7273,6112 "/>
  <polygon class="fil10" points="6147,6202 6352,6202 6324,6112 6119,6112 "/>
  <polygon class="fil8" points="4481,6202 5482,6202 5453,6112 4453,6112 "/>
  <polygon class="fil10" points="5553,6202 6093,6202 6065,6112 5525,6112 "/>
  <polygon class="fil10" points="6422,6202 7242,6202 7213,6112 6393,6112 "/>
  <polygon class="fil13" points="8027,8492 8504,8492 8476,8403 7998,8403 "/>
  <polygon class="fil13" points="6872,8492 7077,8492 7049,8403 6844,8403 "/>
  <polygon class="fil10" points="5207,8492 6207,8492 6179,8403 5178,8403 "/>
  <polygon class="fil10" points="6278,8492 6819,8492 6790,8403 6250,8403 "/>
  <polygon class="fil10" points="7147,8492 7967,8492 7939,8403 7119,8403 "/>
  <polygon class="fil7" points="7785,7729 8262,7729 8234,7639 7757,7639 "/>
  <polygon class="fil10" points="6631,7729 6835,7729 6807,7639 6602,7639 "/>
  <polygon class="fil9" points="4965,7729 5965,7729 5937,7639 4937,7639 "/>
  <polygon class="fil10" points="6037,7729 6577,7729 6549,7639 6008,7639 "/>
  <polygon class="fil8" points="6905,7729 7725,7729 7697,7639 6877,7639 "/>
  <polygon class="fil12" points="7422,6583 7900,6583 7871,6494 7394,6494 "/>
  <polygon class="fil12" points="6643,6583 7121,6583 7092,6494 6615,6494 "/>
  <polygon class="fil10" points="4735,6583 5555,6583 5527,6494 4706,6494 "/>
  <polygon class="fil10" points="8021,6965 7200,6965 7172,6876 7992,6876 "/>
  <polygon class="fil10" points="6757,6965 5936,6965 5908,6876 6728,6876 "/>
  <polygon class="fil7" points="5654,6965 4834,6965 4806,6876 5626,6876 "/>
  <polygon class="fil14" points="4507,5239 6269,5239 6266,5234 4504,5234 "/>
  <polygon class="fil15" points="4615,5422 6377,5422 6269,5239 4507,5239 "/>
  <path class="fil16" d="M8078 9024l429 0 -315 -532 -165 0 -29 -89 141 0 -172 -292 -857 0 -28 -90 832 0 -206 -349 17 57 -820 0 -28 -90 811 0 -399 -674 -89 0 -28 -89 65 0 -173 -293 -421 0 -28 -89 396 0 -173 -292 -416 0 -29 -90 392 0 -173 -292 -227 0 -28 -90 202 0 -182 -308 -1762 0 182 308 138 0 28 90 -113 0 173 292 430 0 29 90 -406 0 172 292 279 0 28 89 -254 0 173 293 152 0 28 89 -127 0 399 674 11 0 13 42 201 340 379 0 29 90 -355 0 173 292 413 0 29 89 -389 0 307 519 1267 0c26,0 51,4 74,13zm-1029 -621l28 89 -205 0 -28 -89 205 0zm890 0l28 89 -820 0 -28 -89 820 0zm-917 -382l29 90 -423 0 -28 -90 422 0zm-473 -382l28 90 -540 0 -29 -90 541 0zm258 0l28 90 -204 0 -29 -90 205 0zm436 -382l28 90 -602 0 -29 -90 603 0zm196 0l29 90 -143 0 -28 -90 142 0zm-711 -381l29 89 -821 0 -28 -89 820 0zm-663 -764l28 90 -540 0 -28 -90 540 0zm259 0l28 90 -205 0 -28 -90 205 0zm-1175 -382l28 90 -143 0 -28 -90 143 0zm656 0l28 90 -602 0 -29 -90 603 0zm492 0l28 90 -422 0 -28 -90 422 0z"/>
  <polygon class="fil17" points="6385,5820 6612,5820 6559,5730 6357,5730 "/>
  <polygon class="fil18" points="5231,5820 5833,5820 5805,5730 5202,5730 "/>
  <polygon class="fil19" points="4850,5820 4963,5820 4935,5730 4797,5730 "/>
  <polygon class="fil20" points="5034,5820 5177,5820 5149,5730 5006,5730 "/>
  <polygon class="fil19" points="5903,5820 6325,5820 6297,5730 5875,5730 "/>
  <polygon class="fil20" points="7110,8111 7967,8111 7914,8021 7082,8021 "/>
  <polygon class="fil19" points="6204,8111 6559,8111 6530,8021 6151,8021 "/>
  <polygon class="fil19" points="6628,8111 7051,8111 7022,8021 6600,8021 "/>
  <polygon class="fil21" points="6669,7347 7271,7347 7243,7257 6640,7257 "/>
  <polygon class="fil20" points="7325,7347 7468,7347 7439,7257 7297,7257 "/>
  <polygon class="fil20" points="6147,6202 6352,6202 6324,6112 6119,6112 "/>
  <polygon class="fil18" points="5076,6202 5482,6202 5453,6112 5023,6112 "/>
  <polygon class="fil20" points="5553,6202 6093,6202 6065,6112 5525,6112 "/>
  <polygon class="fil20" points="6422,6202 6838,6202 6785,6112 6393,6112 "/>
  <polygon class="fil22" points="8027,8492 8192,8492 8139,8403 7998,8403 "/>
  <polygon class="fil22" points="6872,8492 7077,8492 7049,8403 6844,8403 "/>
  <polygon class="fil20" points="6430,8492 6819,8492 6790,8403 6377,8403 "/>
  <polygon class="fil20" points="7147,8492 7967,8492 7939,8403 7119,8403 "/>
  <polygon class="fil20" points="6631,7729 6835,7729 6807,7639 6602,7639 "/>
  <polygon class="fil19" points="5950,7681 5937,7639 5926,7639 "/>
  <polygon class="fil20" points="6037,7729 6577,7729 6549,7639 6008,7639 "/>
  <polygon class="fil18" points="6905,7729 7725,7729 7708,7672 7688,7639 6877,7639 "/>
  <polygon class="fil21" points="6643,6583 7064,6583 7011,6494 6615,6494 "/>
  <polygon class="fil20" points="5301,6583 5555,6583 5527,6494 5248,6494 "/>
  <polygon class="fil20" points="7200,6965 7289,6965 7237,6876 7172,6876 "/>
  <polygon class="fil20" points="5936,6965 6757,6965 6728,6876 5908,6876 "/>
  <polygon class="fil17" points="5527,6965 5654,6965 5626,6876 5474,6876 "/>
  <path class="fil23" d="M6990 9456l5078 0c118,0 215,-97 215,-216 0,-119 -97,-216 -215,-216l-5078 0c-119,0 -216,97 -216,216 0,119 97,216 216,216z"/>
  <path class="fil24" d="M5065 9442l2939 0c118,0 216,-97 216,-215 0,-119 -98,-216 -216,-216l-2939 0c-119,0 -216,97 -216,216 0,118 97,215 216,215z"/>
  <polygon class="fil25" points="7055,9369 6680,9369 6680,9159 7055,9159 "/>
  <polygon class="fil25" points="6486,9369 6111,9369 6111,9159 6486,9159 "/>
  <polygon class="fil26" points="6383,9280 5997,9280 5997,9154 6383,9154 "/>
  <polygon class="fil2" points="6971,9280 6667,9280 6667,9154 6971,9154 "/>
  <polygon class="fil27" points="5188,12624 2402,12624 2402,12063 5188,12063 "/>
  <polygon class="fil27" points="2850,17981 2216,17981 2216,10156 2850,10156 "/>
  <polygon class="fil28" points="5395,17964 4761,17964 4761,10108 5395,10108 "/>
  <polygon class="fil27" points="5395,13125 4761,13125 4761,9667 5395,9667 "/>
  <path class="fil29" d="M1675 10149l8839 0 0 -536c0,-94 -77,-171 -171,-171l-8498 0c-94,0 -170,77 -170,171l0 536z"/>
  <path class="fil30" d="M4251 9684l0 465 12485 0 0 -465c0,-134 -108,-242 -242,-242l-12001 0c-134,0 -242,108 -242,242z"/>
  <polygon class="fil29" points="10543,9442 10907,10149 13189,10149 13189,9442 "/>
  <polygon class="fil26" points="16149,12576 13108,12576 13108,12015 16149,12015 "/>
  <polygon class="fil27" points="13556,17966 12923,17966 12923,10108 13556,10108 "/>
  <polygon class="fil28" points="16243,17934 15609,17934 15609,10108 16243,10108 "/>
  <path class="fil31" d="M11786 12691l4362 327 1211 -6144 -2930 -10c-821,-3 -1532,571 -1702,1374l-941 4453z"/>
  <path class="fil32" d="M17017 12869l763 -5653c22,-163 -94,-315 -257,-337l-277 -37c-163,-23 -315,93 -337,256l-763 5654c-22,163 93,315 257,337l277 37c163,22 315,-93 337,-257z"/>
  <polygon class="fil28" points="14550,16482 14039,16482 14039,13467 14550,13467 "/>
  <path class="fil33" d="M14039 13643l0 681 511 -198 0 -461c-128,-6 -374,-16 -511,-22z"/>
  <path class="fil33" d="M13038 13711l2429 0c86,0 156,-70 156,-156l0 -145c0,-86 -70,-156 -156,-156l-2429 0c-86,0 -156,70 -156,156l0 145c0,86 70,156 156,156z"/>
  <path class="fil31" d="M11811 13437l2988 0c215,0 390,-175 390,-390l0 -363c0,-214 -175,-389 -390,-389l-2988 0c-214,0 -389,175 -389,389l0 363c0,215 175,390 389,390z"/>
  <path class="fil32" d="M14118 13452l2463 0c214,0 389,-175 389,-389l0 -363c0,-215 -175,-390 -389,-390l-2463 0c-214,0 -390,175 -390,390l0 363c0,214 176,389 390,389z"/>
  <path class="fil26" d="M12128 17487l320 0c0,-382 311,-693 693,-693l2330 0c382,0 692,311 692,693l320 0c0,-558 -454,-1012 -1012,-1012l-2330 0c-558,0 -1013,454 -1013,1012z"/>
  <polygon class="fil26" points="14671,16482 13925,16482 13925,15995 14671,15995 "/>
  <path class="fil26" d="M16070 17796c0,147 119,266 266,266 146,0 265,-119 265,-266 0,-146 -119,-265 -265,-265 -147,0 -266,119 -266,265z"/>
  <path class="fil13" d="M15952 17773l727 0 0 -192c0,-131 -106,-238 -238,-238l-250 0c-132,0 -239,107 -239,238l0 192z"/>
  <path class="fil26" d="M12008 17796c0,147 119,266 265,266 147,0 266,-119 266,-266 0,-146 -119,-265 -266,-265 -146,0 -265,119 -265,265z"/>
  <path class="fil13" d="M11890 17773l727 0 0 -192c0,-131 -107,-238 -238,-238l-250 0c-132,0 -239,107 -239,238l0 192z"/>
  <polygon class="fil26" points="14495,17533 14071,17533 14071,16574 14495,16574 "/>
  <path class="fil26" d="M14009 17796c0,147 118,266 265,266 147,0 266,-119 266,-266 0,-146 -119,-265 -266,-265 -147,0 -265,119 -265,265z"/>
  <path class="fil13" d="M13891 17773l727 0 0 -192c0,-131 -107,-238 -238,-238l-250 0c-132,0 -239,107 -239,238l0 192z"/>
  <path class="fil34" d="M10920 17785l-1981 -75c-119,-4 -211,-104 -206,-222l0 0c3,-91 64,-170 151,-196l993 -306 1071 67 -28 732z"/>
  <path class="fil26" d="M8851 17762l2051 92 7 -144 -2149 -96 -2 45c-3,54 39,100 93,103z"/>
  <path class="fil3" d="M12461 11428c0,217 77,415 205,570 164,199 412,325 690,325l1505 0c45,0 89,-3 132,-10 110,-15 214,-52 307,-105 17,-9 33,-19 49,-29 245,-160 407,-437 407,-751l12 -444 -3427 -488 120 932z"/>
  <line class="fil35 str0" x1="9888" y1="17277" x2="9667" y2= "17018" />
  <line class="fil35 str0" x1="9715" y1="17341" x2="9493" y2= "17082" />
  <line class="fil35 str0" x1="9547" y1="17430" x2="9298" y2= "17137" />
  <path class="fil3" d="M10005 12370c394,-677 1929,-1419 2570,-1706l292 652c-676,272 -2010,862 -2210,1356 -261,646 -180,4165 -175,4385l-634 -29c0,0 -51,-809 -92,-1842 -78,-1972 82,-2530 249,-2816z"/>
  <path class="fil33" d="M10657 12672c200,-494 1534,-1084 2210,-1356l222 494c-914,410 -1842,963 -1996,1188 -151,362 -182,2150 -67,4084l-544 -25c-5,-220 -86,-3739 175,-4385z"/>
  <path class="fil34" d="M13396 17444l-1855 702c-110,42 -234,-14 -276,-124 -32,-85 -7,-182 63,-240l796 -668 1012 -355 260 685z"/>
  <path class="fil26" d="M11481 18228l1925 -714 -50 -134 -2017 747 16 43c10,28 32,48 58,58l67 0 1 0z"/>
  <path class="fil3" d="M11868 15121c26,1024 117,1960 121,1999l664 -64 585 -57c-170,-1746 -162,-3502 15,-3877 204,-193 1000,-544 1740,-809 104,-37 187,-89 287,-122 18,-6 33,-28 50,-34l19 22c0,0 -614,-1078 -1906,-707 -272,78 -496,337 -777,526 -146,98 -270,198 -360,298 -258,283 -490,822 -438,2825z"/>
  <line class="fil35 str0" x1="12311" y1="17314" x2="12002" y2= "17171" />
  <line class="fil35 str0" x1="12180" y1="17445" x2="11871" y2= "17302" />
  <line class="fil35 str0" x1="12065" y1="17596" x2="11716" y2= "17433" />
  <path class="fil33" d="M12653 17056l585 -57c-170,-1746 -162,-3502 15,-3877 204,-193 1000,-544 1740,-809 110,-15 356,-134 356,-134 245,-160 407,-437 407,-751l-27 -477 -517 71c12,37 82,402 -46,621 -35,62 -87,112 -161,140 -202,78 -972,266 -1585,540 -396,178 -727,392 -795,635 -161,571 2,3631 28,4098z"/>
  <path class="fil1" d="M13617 4934l488 0c148,0 270,-122 270,-270l0 -1366c0,-148 -122,-270 -270,-270l-488 0c-149,0 -270,122 -270,270l0 1366c0,148 121,270 270,270z"/>
  <path class="fil29" d="M11804 2034c1,24 3,48 6,72 14,115 39,227 75,333 153,455 501,815 940,988 218,86 458,126 707,109 123,-9 242,0 354,8 255,20 480,40 664,-144 86,-86 162,-180 226,-282 25,-40 49,-80 71,-122 132,-256 208,-881 187,-1189 -61,-867 -795,-1527 -1655,-1506 -25,1 -49,2 -74,4 -544,38 -1005,340 -1269,773l-1 1c-77,127 -137,265 -178,411 -47,172 -67,356 -53,544z"/>
  <path class="fil36" d="M13960 2366c2,36 10,69 24,100 16,38 41,77 72,105 55,49 129,84 209,80l172 -9 131 -7 -19 -391 -1 0 -3 -73 -3 -56 -3 -51 0 -14 -1 0 -303 16c-76,4 -145,37 -194,88 -30,31 -53,69 -67,111 -11,32 -16,66 -14,101z"/>
  <path class="fil37" d="M11872 2200l33 633 5 95c2,62 10,124 22,183 108,559 572,988 1141,1059 17,3 35,4 52,5 61,6 122,7 185,4 61,-3 120,-11 179,-22 114,-20 223,-56 324,-104l1 -1c442,-209 747,-650 763,-1153 1,-15 1,-30 1,-45 0,-18 0,-36 -1,-54l0 -9 -2 -43 -7 -113 -19 -388 0 -3 0 -1 -4 -72 -3 -56 -3 -51 -1 -14c-5,-89 -23,-176 -49,-259 -18,-58 -40,-114 -64,-169 -3,-9 -6,-16 -10,-24 -20,-45 -44,-89 -69,-131l0 -1c-96,-160 -225,-299 -377,-406 -31,-21 -62,-42 -94,-61 -223,-130 -483,-200 -759,-186 -368,19 -698,184 -927,436 -124,135 -205,293 -264,468 -23,67 -37,135 -45,205 -11,90 -13,183 -8,278z"/>
  <path class="fil36" d="M14417 2249l20 393 13 265 105 -5c7,-1 15,-1 22,-3 174,-21 305,-179 296,-354 -4,-90 -46,-165 -110,-222 -57,-51 -132,-78 -214,-79l-1 0c-9,-1 -17,-1 -27,0l-104 5z"/>
  <path class="fil26" d="M12332 2730l38 0c22,0 41,-18 41,-41l0 -228c0,-22 -19,-40 -41,-40l-38 0c-22,0 -40,18 -40,40l0 228c0,23 18,41 40,41z"/>
  <path class="fil26" d="M13205 2730l38 0c22,0 40,-18 40,-41l0 -228c0,-22 -18,-40 -40,-40l-38 0c-22,0 -41,18 -41,40l0 228c0,23 19,41 41,41z"/>
  <path class="fil1" d="M13347 4174c0,0 238,16 466,-121l1 -1c442,-209 747,-650 763,-1153 174,-21 305,-179 296,-354 -4,-90 -46,-165 -110,-222 -57,-51 -132,-78 -214,-79l0 -1 -4 -72 -3 -56 -3 -51 0 -14 -1 0c-5,-89 -23,-176 -49,-259 -180,-100 -363,-119 -468,106 0,0 11,102 20,257 7,116 14,262 15,417 3,318 -16,673 -98,889 -175,460 -611,714 -611,714z"/>
  <path class="fil29" d="M11739 1283l2309 0c96,0 174,-79 174,-175l0 -163c0,-96 -78,-174 -174,-174l-2309 0c-97,0 -175,78 -175,174l0 163c0,96 78,175 175,175z"/>
  <path class="fil29" d="M11353 1491c-21,115 19,225 93,299 61,61 146,99 238,99l1957 0c281,0 508,227 508,508l0 316c0,105 86,191 191,191l46 0c105,0 191,-85 191,-191l0 -953c0,-7 -1,-14 -2,-22 36,-53 57,-118 57,-186 0,-93 -38,-177 -99,-239 -61,-61 -145,-99 -238,-99l-2597 0c-165,0 -316,114 -345,277z"/>
  <path class="fil29" d="M11994 2246l468 0c29,0 52,-23 52,-51l0 -48c0,-29 -23,-52 -52,-52l-468 0c-28,0 -52,23 -52,52l0 48c0,28 24,51 52,51z"/>
  <path class="fil29" d="M13017 2246l469 0c28,0 51,-23 51,-51l0 -48c0,-29 -23,-52 -51,-52l-469 0c-28,0 -51,23 -51,52l0 48c0,28 23,51 51,51z"/>
  <polygon class="fil38" points="12990,2786 13188,2397 13045,2397 12839,2770 "/>
  <polygon class="fil38" points="12061,2786 12260,2397 12117,2397 11911,2770 "/>
  <path class="fil35 str1" d="M11983 2807l505 0c34,0 62,-28 62,-62l0 -304c0,-34 -28,-62 -62,-62l-505 0c-34,0 -62,28 -62,62l0 304c0,34 28,62 62,62z"/>
  <path class="fil35 str2" d="M12857 2807l552 0c35,0 64,-29 64,-64l0 -300c0,-35 -29,-64 -64,-64l-552 0c-36,0 -65,29 -65,64l0 300c0,35 29,64 65,64z"/>
  <path class="fil35 str3" d="M12541 3319c70,73 179,116 300,109 101,-5 190,-43 253,-103"/>
  <path class="fil1" d="M12511 2975l8 0c2,68 61,121 206,117l17 -533c-155,197 -220,306 -231,416z"/>
  <line class="fil35 str2" x1="12783" y1="2595" x2="12530" y2= "2603" />
  <path class="fil39" d="M12147 10773l2470 376c286,44 561,144 807,296l346 213 82 -5463c0,-26 -1,-53 -2,-79 -27,-528 -314,-987 -736,-1251 -167,-105 -356,-180 -559,-215 -88,-16 -179,-24 -272,-24l-531 0c-866,0 -1569,703 -1569,1569l-18 2363 -8 1047 -10 1168z"/>
  <path class="fil40" d="M12459 5308c204,-97 432,-151 673,-151l530 0c93,0 184,7 273,23 202,35 456,78 625,182 271,168 267,358 181,642 -8,26 490,695 490,721l-12 1171 608 -1176 25 -525c0,-26 -1,-53 -2,-79 -27,-528 -314,-987 -736,-1251 -167,-105 -356,-180 -559,-215 -88,-16 -179,-24 -272,-24l-531 0c-536,0 -1011,270 -1293,682z"/>
  <polygon class="fil7" points="13511,6773 13696,7842 14537,4531 13133,4531 "/>
  <polygon class="fil2" points="13107,4925 13766,4538 14536,4925 14536,4449 13107,4449 "/>
  <path class="fil1" d="M11428 8878l-778 -124c-56,-9 -94,-62 -85,-119l0 -2c9,-56 62,-94 118,-85l778 124c56,9 95,62 86,118l-1 2c-9,56 -62,95 -118,86z"/>
  <path class="fil1" d="M11213 9093l-689 -110c-38,-6 -65,-43 -59,-82l11 -65c6,-39 43,-65 81,-59l689 110c38,6 65,43 59,81l-11 66c-6,38 -43,65 -81,59z"/>
  <path class="fil1" d="M11325 9360l-739 -118c-56,-9 -95,-63 -86,-119l0 -2c9,-56 63,-94 119,-85l739 118c56,9 95,62 86,118l-1 2c-9,56 -62,95 -118,86z"/>
  <path class="fil1" d="M11092 8677c8,1 104,0 207,-2 178,-3 354,37 514,115l306 151c0,0 -176,520 -200,524 -590,107 -792,-161 -792,-161l-35 -627z"/>
  <polygon class="fil2" points="11811,9526 11549,9526 11549,8675 11811,8675 "/>
  <path class="fil40" d="M11795 9602l362 3 1354 14 15 0c618,0 1183,-361 1442,-922l12 -28 870 -2553c-27,-528 -314,-987 -736,-1251l-1108 3415c-94,180 -282,294 -485,291l-1356 -13 -360 -4 -10 1048z"/>
  <polygon class="fil26" points="3980,9446 1923,9446 1923,8832 3980,8832 "/>
  <polygon class="fil41" points="4558,9446 2500,9446 2500,8832 4558,8832 "/>
  <path class="fil35 str4" d="M6096 9211l-314 9c-178,5 -321,149 -325,326l-45 1899c-11,478 -394,863 -872,878 -517,15 -940,-407 -926,-924l55 -1953c5,-181 -135,-333 -316,-343"/>
  <polygon class="fil26" points="3534,9193 2974,9193 2974,9031 3534,9031 "/>
  <polygon class="fil2" points="4197,9125 3637,9125 3637,8963 4197,8963 "/>
  <path class="fil35 str5" d="M6720 9213l0 0c-331,30 -591,296 -613,627l-5 75c-21,311 -282,551 -594,547l-686 -9c-402,-6 -726,-329 -735,-730l-5 -264c-4,-206 -156,-379 -359,-410"/>
 </g>
</svg>
