<?xml version="1.0" encoding="iso-8859-1"?>
<!-- Generator: Adobe Illustrator 19.0.0, SVG Export Plug-In . SVG Version: 6.00 Build 0)  -->
<svg xmlns="http://www.w3.org/2000/svg" xmlns:xlink="http://www.w3.org/1999/xlink" version="1.1" id="Capa_1" x="0px" y="0px" viewBox="0 0 512 512" style="enable-background:new 0 0 512 512;" xml:space="preserve" width="512px" height="512px">
<g>
	<g>
		<g>
			<circle cx="367.981" cy="423.836" r="7.322" fill="#FFFFFF"/>
			<path d="M405.711,252.367c4.143,0,7.5-3.357,7.5-7.5V213.21c0-9.303-3.831-18.396-10.51-24.95     c-6.587-6.464-15.174-9.934-24.262-9.758c-10.443,0.198-19.785,5.188-25.925,12.829c-6.257-7.818-15.877-12.835-26.646-12.835     c-0.197,0-0.391,0.014-0.587,0.017c9.637-17.517,14.753-37.264,14.753-57.89C340.034,54.111,285.924,0,219.412,0     c-24.791,0-48.625,7.496-68.925,21.678c-3.395,2.372-4.225,7.048-1.853,10.443c2.374,3.396,7.048,4.224,10.444,1.854     C176.846,21.562,197.709,15,219.412,15c58.24,0,105.622,47.382,105.622,105.623c0,26.075-9.34,50.549-26.468,69.858     c-6.261-7.325-15.556-11.985-25.926-11.985c-1.42,0-2.813,0.11-4.188,0.28c16.862-14.202,27.007-35.3,27.007-58.153     c0-41.934-34.115-76.049-76.048-76.049c-41.933,0-76.048,34.115-76.048,76.049c0,28.972,16.304,55.124,41.934,67.975v31.965     c-18.915-6.499-35.884-18.399-48.483-34.187c-15.063-18.877-23.026-41.614-23.026-65.752c0-21.128,6.245-41.53,18.059-59.003     c2.32-3.432,1.42-8.094-2.012-10.414c-3.432-2.321-8.094-1.42-10.414,2.012c-13.499,19.963-20.633,43.272-20.633,67.405     c0,27.18,9.341,53.854,26.301,75.107c15.446,19.356,36.658,33.599,60.208,40.574v26.005c-14.939-6.182-32.876-3.214-44.917,8.826     c-7.765,7.766-12.041,18.09-12.041,29.071c0,10.98,4.276,21.305,12.041,29.07l36.991,36.99c5.111,5.11,7.926,11.906,7.926,19.135     v98.268c0,15.621,12.708,28.33,28.329,28.33H384.88c15.621,0,28.33-12.709,28.33-28.33V291.219c0-4.143-3.357-7.5-7.5-7.5     c-4.142,0-7.5,3.357-7.5,7.5v102.692H200.299v-8.509c0-11.235-4.375-21.798-12.319-29.742l-36.991-36.99     c-10.181-10.181-10.181-26.746,0-36.927c10.007-10.007,26.424-10.146,36.598-0.312c2.165,2.092,5.371,2.686,8.141,1.512     c2.771-1.176,4.571-3.894,4.571-6.904v-92.194c0-0.026,0-0.051,0-0.077v-63.145c0-10.54,8.575-19.114,19.114-19.114     c10.54,0,19.114,8.574,19.114,19.114v63.146c0,0.026,0,0.051,0,0.077v28.764c0,4.143,3.358,7.5,7.5,7.5     c4.142,0,7.5-3.357,7.5-7.5c0-10.54,8.575-19.114,19.115-19.114c10.539,0,19.113,8.574,19.113,19.114c0,4.143,3.357,7.5,7.5,7.5     s7.5-3.357,7.5-7.5c0-10.54,8.574-19.114,19.114-19.114c10.54,0,19.114,8.574,19.114,19.114c0,4.143,3.357,7.5,7.5,7.5     s7.5-3.357,7.5-7.5c0-10.342,8.407-18.915,18.741-19.11c0.117-0.003,0.233-0.004,0.349-0.004c4.872,0,9.521,1.935,13.123,5.47     c3.823,3.752,6.016,8.943,6.016,14.244v31.657C398.211,249.01,401.568,252.367,405.711,252.367z M200.299,453.761h18.114     c4.142,0,7.5-3.357,7.5-7.5s-3.358-7.5-7.5-7.5h-18.114v-29.85h197.913v29.85H262.813c-4.143,0-7.5,3.357-7.5,7.5     s3.357,7.5,7.5,7.5h135.398v29.909c0,7.351-5.979,13.33-13.33,13.33H213.627c-7.35,0-13.329-5.979-13.329-13.33V453.761z      M253.526,171.267v-50.644c0-18.811-15.303-34.114-34.114-34.114c-18.811,0-34.114,15.304-34.114,34.114v50.643     c-16.656-11.201-26.934-30.033-26.934-50.643c0-33.662,27.386-61.049,61.048-61.049c33.662,0,61.048,27.387,61.048,61.049     C280.461,141.232,270.182,160.064,253.526,171.267z" fill="#FFFFFF"/>
		</g>
	</g>
</g>
<g>
</g>
<g>
</g>
<g>
</g>
<g>
</g>
<g>
</g>
<g>
</g>
<g>
</g>
<g>
</g>
<g>
</g>
<g>
</g>
<g>
</g>
<g>
</g>
<g>
</g>
<g>
</g>
<g>
</g>
</svg>
