<svg xmlns="http://www.w3.org/2000/svg" viewBox="0 0 244.37 278.47"><defs><style>.cls-1{fill:#ff4c14;}.cls-2{fill:#ff6612;}.cls-3{fill:#fff;}.cls-4{fill:#eceff1;}</style></defs><title>04</title><g id="Layer_2" data-name="Layer 2"><polygon class="cls-1" points="122.18 278.47 22.22 250.4 0 0 122.18 0 122.18 278.47"/><polygon class="cls-1" points="122.18 278.47 222.15 250.4 244.37 0 122.18 0 122.18 278.47"/><polygon class="cls-2" points="122.18 258.3 205.65 234.56 224.43 18.84 122.18 18.84 122.18 258.3"/></g><g id="Layer_3" data-name="Layer 3"><polygon class="cls-3" points="201.49 50.23 76.41 50.23 45.81 50.23 48.28 81.37 50.78 112.93 53.25 144.06 83.86 144.06 161.24 144.06 157.98 184.61 122.19 194.64 87.55 184.94 85.37 159.8 54.77 159.8 56.18 176.15 57.24 188.37 59.01 208.82 67.53 211.21 90.38 217.7 122.18 226.74 155.33 217.59 176.77 211.68 187.28 208.74 189.94 175.66 192.48 144.06 194.98 112.93 163.74 112.93 81.39 112.93 78.89 81.37 197.71 81.37 201.49 50.23"/><polygon class="cls-4" points="122.18 144.06 122.18 112.93 81.39 112.93 78.89 81.37 122.18 81.37 122.18 50.23 122.18 50.23 76.41 50.23 45.81 50.23 48.28 81.37 50.78 112.93 53.25 144.06 83.86 144.06 122.18 144.06"/><polygon class="cls-4" points="122.18 194.64 87.55 184.94 85.37 159.8 54.77 159.8 56.18 176.15 57.24 188.37 59.01 208.82 67.53 211.21 90.38 217.7 122.18 226.74 122.18 226.74 122.18 194.64"/></g></svg>