<?xml version="1.0" encoding="utf-8"?>
<!-- Generator: Adobe Illustrator 21.0.2, SVG Export Plug-In . SVG Version: 6.00 Build 0)  -->
<svg version="1.1" id="Layer_2" xmlns="http://www.w3.org/2000/svg" xmlns:xlink="http://www.w3.org/1999/xlink" x="0px" y="0px"
	 viewBox="0 0 304.6 390.4" style="enable-background:new 0 0 304.6 390.4;" xml:space="preserve">
<style type="text/css">
	.st0{fill:#ffffff;}
</style>
<title>01</title>
<g>
	<path class="st0" d="M118.6,0C84.1,0,56.1,28,56.1,62.5c0,0,0,0,0,0v153c0,1.3-1,2.3-2.3,2.3c-0.6,0-1.2-0.2-1.6-0.7l-26.9-26.9
		c-0.8-0.8-2.1-0.8-2.9,0L0.6,212c-0.8,0.8-0.8,2.1,0,2.9l52.8,52.8L76.6,291c0.8,0.8,2.1,0.8,2.9,0l23.2-23.2l52.8-52.8
		c0.8-0.8,0.8-2.1,0-2.9l-21.8-21.8c-0.8-0.8-2.1-0.8-2.9,0l-27,27c-0.9,0.9-2.4,0.9-3.3,0c-0.4-0.4-0.7-1-0.7-1.6V68.9
		c0-21.7,17.6-39.3,39.3-39.3l0,0h21.4c21.7,0,39.3,17.6,39.3,39.2v0v10.9c0,1.1,0.9,2.1,2.1,2.1h49.7c1.1,0,2.1-0.9,2.1-2.1V62.5
		C253.7,28,225.7,0,191.2,0c0,0-0.1,0-0.1,0H118.6z"/>
	<path class="st0" d="M186,390.4c34.5,0,62.5-28,62.5-62.5v-153c0-1.3,1-2.3,2.3-2.3c0.6,0,1.2,0.2,1.6,0.7l26.9,26.9
		c0.8,0.8,2.1,0.8,2.9,0l21.8-21.8c0.8-0.8,0.8-2.1,0-2.9l-52.8-52.8L228,99.4c-0.8-0.8-2.1-0.8-2.9,0l-23.2,23.2l-52.8,52.8
		c-0.8,0.8-0.8,2.1,0,2.9l21.8,21.8c0.8,0.8,2.1,0.8,2.9,0l27-27c0.9-0.9,2.4-0.9,3.3,0c0.4,0.4,0.7,1,0.7,1.6v146.7
		c0,21.7-17.6,39.3-39.3,39.3l0,0h-21.3c-21.7,0-39.3-17.6-39.3-39.3l0,0v-10.9c0-1.1-0.9-2.1-2.1-2.1H53.1c-1.1,0-2.1,0.9-2.1,2.1
		v17.3c0,34.5,28,62.5,62.5,62.5L186,390.4z"/>
</g>
</svg>
