<?xml version="1.0" encoding="UTF-8"?>
<!DOCTYPE svg PUBLIC "-//W3C//DTD SVG 1.1//EN" "http://www.w3.org/Graphics/SVG/1.1/DTD/svg11.dtd">
<!-- Creator: CorelDRAW X6 -->
<svg xmlns="http://www.w3.org/2000/svg" xml:space="preserve" width="210mm" height="210.5mm" version="1.1" style="shape-rendering:geometricPrecision; text-rendering:geometricPrecision; image-rendering:optimizeQuality; fill-rule:evenodd; clip-rule:evenodd"
viewBox="0 0 21000 21050"
 xmlns:xlink="http://www.w3.org/1999/xlink">
 <defs>
  <style type="text/css">
   <![CDATA[
    .fil2 {fill:#73A1FB}
    .fil0 {fill:#AAC148}
    .fil1 {fill:#DB380E}
   ]]>
  </style>
 </defs>
 <g id="Layer_x0020_1">
  <metadata id="CorelCorpID_0Corel-Layer"/>
  <g id="_682569280">
  </g>
  <g id="_682569600">
  </g>
  <g id="_682569088">
  </g>
  <g id="_682568960">
  </g>
  <g id="_682568896">
  </g>
  <g id="_682570208">
  </g>
  <g id="_682568416">
  </g>
  <g id="_682568832">
  </g>
  <g id="_682569984">
  </g>
  <g id="_682570240">
  </g>
  <g id="_682569248">
  </g>
  <g id="_682569152">
  </g>
  <g id="_682568160">
  </g>
  <g id="_682568256">
  </g>
  <g id="_682566656">
  </g>
  <g id="_243488576">
   <g id="_232233040">
    <path class="fil0" d="M17799 9523l-8490 0c-188,0 -342,153 -342,342l0 7119c0,189 154,342 342,342l1514 0 0 2398c0,557 451,1008 1007,1008l0 0c557,0 1008,-451 1008,-1008l0 -2398 1410 0 0 2398c0,557 452,1008 1008,1008l0 0c557,0 1008,-451 1008,-1008l0 -2398 1535 0c188,0 341,-153 341,-342l0 -7119c0,-189 -153,-342 -341,-342z"/>
    <path class="fil0" d="M8799 10615l0 0c1,-557 -450,-1009 -1006,-1009l-4094 -4c-556,0 -1008,450 -1009,1007l0 0c0,557 451,1008 1007,1009l4094 3c557,1 1008,-450 1008,-1006z"/>
    <path class="fil0" d="M19577 9522l0 0c-556,0 -1008,451 -1008,1008l0 4093c0,556 452,1008 1008,1008l0 0c557,0 1008,-451 1008,-1008l0 -4093c0,-557 -451,-1008 -1008,-1008z"/>
    <path class="fil0" d="M9379 9025l8330 0c218,0 380,-201 335,-414 -276,-1313 -1112,-2420 -2246,-3060l712 -1284c48,-87 17,-197 -70,-246 -88,-47 -197,-16 -245,71l-718 1294c-588,-272 -1243,-424 -1933,-424 -690,0 -1345,152 -1933,424l-718 -1294c-48,-87 -158,-118 -245,-71 -87,49 -118,158 -70,246l712 1284c-1134,640 -1971,1747 -2246,3060 -45,213 117,414 335,414zm6651 -1916c0,214 -173,387 -388,387 -213,0 -387,-173 -387,-387 0,-214 173,-387 387,-387 215,0 388,173 388,387zm-4584 -387c213,0 387,173 387,387 0,214 -174,387 -387,387 -215,0 -388,-173 -388,-387 0,-214 173,-387 388,-387z"/>
   </g>
   <g id="_232234256">
   </g>
   <g id="_232232624">
   </g>
   <g id="_232234224">
   </g>
   <g id="_232233840">
   </g>
   <g id="_232233104">
   </g>
   <g id="_232234160">
   </g>
   <g id="_232231408">
   </g>
   <g id="_232231248">
   </g>
   <g id="_232230416">
   </g>
   <g id="_232230672">
   </g>
   <g id="_232231728">
   </g>
   <g id="_232231056">
   </g>
   <g id="_232232080">
   </g>
   <g id="_232232208">
   </g>
   <g id="_232230512">
   </g>
   <g id="_232230064">
    <path class="fil1" d="M3489 1727c-403,283 -859,604 -1103,1135 -425,926 868,1936 924,1978 13,11 28,16 43,16 17,0 33,-6 46,-17 26,-22 33,-58 18,-88 -5,-9 -469,-911 -452,-1558 6,-225 321,-480 655,-751 306,-248 653,-528 855,-857 445,-724 -49,-1435 -54,-1442 -20,-28 -56,-37 -87,-24 -31,14 -49,47 -41,80 0,5 97,476 -171,960 -110,200 -352,371 -633,568z"/>
    <path class="fil1" d="M5185 2046c28,-21 37,-61 19,-92 -17,-31 -54,-44 -88,-31 -68,25 -1674,644 -1674,1392 0,516 220,788 381,988 63,77 117,145 136,202 50,166 -70,465 -120,567 -14,29 -7,65 18,86 12,12 29,17 46,17 14,0 29,-4 41,-13 27,-19 674,-476 559,-1028 -44,-209 -147,-362 -238,-498 -141,-209 -242,-360 -88,-639 181,-326 999,-945 1008,-951z"/>
   </g>
   <g id="_232230160">
    <path class="fil2" d="M1004 5187c-27,82 -14,164 38,237 174,241 791,374 1737,374 0,0 0,0 0,0 128,0 263,-2 401,-7 1513,-54 2074,-525 2097,-546 24,-21 31,-58 16,-87 -16,-29 -50,-44 -82,-35 -533,145 -1527,197 -2216,197 -773,0 -1165,-56 -1262,-97 50,-68 354,-189 732,-263 36,-7 60,-41 57,-76 -4,-37 -34,-65 -71,-65 -221,0 -1331,17 -1447,368z"/>
    <path class="fil2" d="M6064 4702c-312,0 -608,156 -620,162 -29,16 -44,49 -36,81 8,32 37,54 69,54 7,0 666,6 726,382 52,325 -624,851 -889,1026 -29,19 -40,55 -26,87 11,27 37,44 66,44 5,0 9,-1 14,-2 63,-13 1539,-339 1383,-1198 -96,-525 -427,-636 -687,-636z"/>
    <path class="fil2" d="M5052 6302c5,-28 -6,-56 -29,-72l-354 -248c-17,-12 -39,-16 -59,-10 -3,1 -374,98 -910,158 -214,24 -453,36 -691,36 -537,0 -888,-63 -939,-109 -7,-13 -5,-19 -4,-22 10,-26 59,-57 92,-69 35,-13 54,-51 43,-88 -11,-36 -48,-57 -85,-49 -355,86 -529,206 -516,357 22,266 641,403 1163,439 75,6 157,8 242,8 0,0 0,0 0,0 869,0 1983,-272 1994,-275 27,-7 48,-29 53,-56z"/>
    <path class="fil2" d="M2386 6875c26,-18 38,-51 28,-82 -9,-30 -37,-51 -70,-50 -47,2 -465,20 -494,286 -8,80 14,153 68,216 150,178 555,284 1237,323 81,5 163,7 244,7 868,0 1453,-272 1477,-283 24,-11 40,-35 40,-60 2,-27 -11,-52 -33,-66l-447 -272c-16,-10 -34,-13 -52,-9 -3,0 -287,59 -715,117 -81,11 -183,17 -302,17 -427,0 -903,-70 -995,-116 -1,-8 1,-19 14,-28z"/>
    <path class="fil2" d="M2995 8396c1988,-2 3055,-356 3260,-578 73,-79 81,-153 75,-201 -16,-121 -124,-194 -137,-202 -30,-19 -70,-14 -93,13 -23,27 -24,66 0,93 12,16 19,43 -18,80 -82,76 -911,310 -2291,380 -188,9 -387,14 -588,14 -1236,0 -2141,-169 -2259,-268 46,-65 365,-170 706,-230 38,-6 64,-43 58,-81 -6,-38 -42,-65 -80,-60 -10,2 -42,3 -80,6 -561,34 -1210,110 -1244,400 -10,87 16,168 78,237 152,171 587,397 2613,397 0,0 0,0 0,0z"/>
    <path class="fil2" d="M6646 7881c-28,-13 -62,-6 -83,16 -3,3 -302,316 -1200,500 -344,68 -990,103 -1920,103 -931,0 -1817,-36 -1826,-36 -37,-3 -69,24 -73,61 -6,36 18,71 54,79 8,2 938,220 2208,220 608,0 1201,-50 1761,-148 1044,-182 1117,-700 1120,-722 3,-31 -14,-60 -41,-73z"/>
   </g>
   <g id="_232228496">
   </g>
   <g id="_232229904">
   </g>
   <g id="_232229328">
   </g>
   <g id="_232227024">
   </g>
   <g id="_232226416">
   </g>
   <g id="_232228112">
   </g>
   <g id="_232228016">
   </g>
   <g id="_232227984">
   </g>
   <g id="_232226256">
   </g>
   <g id="_232227664">
   </g>
   <g id="_232227952">
   </g>
   <g id="_232228048">
   </g>
   <g id="_232226128">
   </g>
   <g id="_232226064">
   </g>
   <g id="_232224048">
   </g>
  </g>
 </g>
</svg>
