<?xml version="1.0" encoding="UTF-8"?>
<!DOCTYPE svg PUBLIC "-//W3C//DTD SVG 1.1//EN" "http://www.w3.org/Graphics/SVG/1.1/DTD/svg11.dtd">
<!-- Creator: CorelDRAW X6 -->
<svg xmlns="http://www.w3.org/2000/svg" xml:space="preserve" width="210mm" height="153.5mm" version="1.1" style="shape-rendering:geometricPrecision; text-rendering:geometricPrecision; image-rendering:optimizeQuality; fill-rule:evenodd; clip-rule:evenodd"
viewBox="0 0 21000 15350"
 xmlns:xlink="http://www.w3.org/1999/xlink">
 <defs>
  <style type="text/css">
   <![CDATA[
    .fil0 {fill:#AAC148}
   ]]>
  </style>
 </defs>
 <g id="Layer_x0020_1">
  <metadata id="CorelCorpID_0Corel-Layer"/>
  <g id="_682899648">
   <path class="fil0" d="M16808 8371l-12577 0c-280,0 -506,226 -506,506l0 6352 13590 0 0 -6352c0,-280 -227,-506 -507,-506z"/>
   <path class="fil0" d="M1595 2105l0 0c-824,0 -1493,669 -1493,1493l0 6065c0,825 668,1494 1493,1494l0 0c825,0 1493,-669 1493,-1494l0 -6065c0,-824 -668,-1493 -1493,-1493z"/>
   <path class="fil0" d="M19392 2077l0 0c-825,0 -1494,668 -1494,1493l0 6065c0,825 669,1493 1494,1493l0 0c824,0 1493,-668 1493,-1493l0 -6065c0,-825 -669,-1493 -1493,-1493z"/>
   <path class="fil0" d="M4333 7631l12344 0c322,0 562,-297 496,-612 -409,-1946 -1648,-3586 -3329,-4533l1055 -1904c72,-129 25,-292 -104,-363 -129,-72 -291,-25 -362,104l-1064 1918c-871,-404 -1841,-629 -2864,-629 -1024,0 -1994,225 -2865,629l-1063 -1918c-72,-129 -234,-175 -363,-104 -129,71 -175,234 -104,363l1055 1904c-1681,947 -2920,2587 -3328,4533 -66,315 174,612 496,612zm9855 -2838c0,317 -257,574 -574,574 -317,0 -574,-257 -574,-574 0,-317 257,-574 574,-574 317,0 574,257 574,574zm-6793 -574c317,0 574,257 574,574 0,317 -257,574 -574,574 -317,0 -574,-257 -574,-574 0,-317 257,-574 574,-574z"/>
  </g>
  <g id="_682898784">
  </g>
  <g id="_682898464">
  </g>
  <g id="_683117344">
  </g>
  <g id="_683117120">
  </g>
  <g id="_683116928">
  </g>
  <g id="_683116768">
  </g>
  <g id="_683117408">
  </g>
  <g id="_683117568">
  </g>
  <g id="_682912560">
  </g>
  <g id="_682912784">
  </g>
  <g id="_682912592">
  </g>
  <g id="_682913072">
  </g>
  <g id="_682912880">
  </g>
  <g id="_682912944">
  </g>
  <g id="_682612464">
  </g>
 </g>
</svg>
