<?xml version="1.0" encoding="iso-8859-1"?>
<!-- Generator: Adobe Illustrator 19.0.0, SVG Export Plug-In . SVG Version: 6.00 Build 0)  -->
<svg xmlns="http://www.w3.org/2000/svg" xmlns:xlink="http://www.w3.org/1999/xlink" version="1.1" id="Layer_1" x="0px" y="0px" viewBox="0 0 512 512" style="enable-background:new 0 0 512 512;" xml:space="preserve">
<path style="fill: #ffffff;" d="M256,0C114.616,0,0,114.616,0,256s114.616,256,256,256s256-114.616,256-256S397.384,0,256,0z"/>
<polygon points="446.512,335.616 65.488,335.616 65.488,348.216 84.536,365.808 427.464,365.808 446.512,348.216 "/>
<path style="fill:#FFFFFF;" d="M101.208,335.616V129.032c0-4.944,4.016-8.984,8.928-8.984h291.72c4.912,0,8.936,4.04,8.936,8.984  v206.584"/>
<path d="M416.744,335.616H404.84V129.032c0-1.64-1.36-3.032-2.976-3.032H110.136c-1.616,0-2.976,1.392-2.976,3.032v206.584H95.256  V129.032c0-8.248,6.672-14.944,14.88-14.944h291.72c8.208,0,14.88,6.696,14.88,14.944L416.744,335.616L416.744,335.616z"/>
<g>
	<polygon style="fill:#999999;" points="290.992,348.136 221.008,348.136 209.104,335.616 302.896,335.616  "/>
	<rect x="318.208" y="151.12" style="fill: #fdc931;" width="24.4" height="153.88"/>
</g>
<rect x="280.96" y="184.8" style="fill: #2a284f;" width="24.4" height="120.24"/>
<rect x="243.8" y="218.448" style="fill: #fdc931;" width="24.4" height="86.56"/>
<rect x="206.6" y="247.296" style="fill: #2a284f;" width="24.4" height="57.704"/>
<rect x="169.36" y="273.28" style="fill: #fdc931;" width="24.4" height="31.752"/>

</svg>
