<?xml version="1.0" encoding="UTF-8"?>
<!DOCTYPE svg PUBLIC "-//W3C//DTD SVG 1.1//EN" "http://www.w3.org/Graphics/SVG/1.1/DTD/svg11.dtd">
<!-- Creator: CorelDRAW X6 -->
<svg xmlns="http://www.w3.org/2000/svg" xml:space="preserve" width="48mm" height="134mm" version="1.1" style="shape-rendering:geometricPrecision; text-rendering:geometricPrecision; image-rendering:optimizeQuality; fill-rule:evenodd; clip-rule:evenodd"
viewBox="0 0 4800 13400"
 xmlns:xlink="http://www.w3.org/1999/xlink">
 <defs>
  <style type="text/css">
   <![CDATA[
    .str0 {stroke:white;stroke-width:20}
    .fil0 {fill:#2A284F}
   ]]>
  </style>
 </defs>
 <g id="Layer_x0020_1">
  <metadata id="CorelCorpID_0Corel-Layer"/>
  <path class="fil0 str0" d="M2573 5933l761 761 -760 762c-111,110 -173,260 -173,416l0 4123c0,108 -88,196 -196,196l-1569 0c-325,0 -588,264 -588,589 0,326 263,589 588,589l1569 0c757,0 1373,-616 1373,-1374l0 -3879 1004 -1005c230,-230 230,-603 0,-833l-1004 -1006 0 -3879c0,-757 -616,-1374 -1373,-1374l-1569 0c-325,0 -588,264 -588,589 0,325 263,589 588,589l1569 0c108,0 196,88 196,196l0 4123c0,157 62,306 172,417z"/>
 </g>
</svg>
