<?xml version="1.0" encoding="UTF-8"?>
<!DOCTYPE svg PUBLIC "-//W3C//DTD SVG 1.1//EN" "http://www.w3.org/Graphics/SVG/1.1/DTD/svg11.dtd">
<!-- Creator: CorelDRAW X6 -->
<svg xmlns="http://www.w3.org/2000/svg" xml:space="preserve" width="48mm" height="134mm" version="1.1" style="shape-rendering:geometricPrecision; text-rendering:geometricPrecision; image-rendering:optimizeQuality; fill-rule:evenodd; clip-rule:evenodd"
viewBox="0 0 4800 13400"
 xmlns:xlink="http://www.w3.org/1999/xlink">
 <defs>
  <style type="text/css">
   <![CDATA[
    .str0 {stroke:white;stroke-width:20}
    .fil0 {fill:#2A284F}
   ]]>
  </style>
 </defs>
 <g id="Layer_x0020_1">
  <metadata id="CorelCorpID_0Corel-Layer"/>
  <path class="fil0 str0" d="M2229 5933l-762 761 762 762c110,110 172,260 172,416l0 4123c0,108 88,196 196,196l1571 0c325,0 589,264 589,589 0,326 -264,589 -589,589l-1571 0c-757,0 -1374,-616 -1374,-1374l0 -3879 -1005 -1005c-230,-230 -230,-603 0,-833l1005 -1006 0 -3879c0,-757 617,-1374 1374,-1374l1571 0c325,0 589,264 589,589 0,325 -264,589 -589,589l-1571 0c-108,0 -196,88 -196,196l0 4123c0,157 -62,306 -172,417z"/>
 </g>
</svg>
