<?xml version="1.0" encoding="utf-8"?>
<!-- Generator: Adobe Illustrator 21.0.2, SVG Export Plug-In . SVG Version: 6.00 Build 0)  -->
<svg version="1.1" id="Layer_2" xmlns="http://www.w3.org/2000/svg" xmlns:xlink="http://www.w3.org/1999/xlink" x="0px" y="0px"
	 viewBox="0 0 293.5 433.2" style="enable-background:new 0 0 293.5 433.2;" xml:space="preserve">
<style type="text/css">
	.st0{fill:#FFFFFF;}
	.st1{fill:#FDC931;}
	.st2{fill:#2a284f;}
</style>
<title>03</title>
<g>
	<path class="st0" d="M9,362.2h275.5l0,0v23.3c0,21.4-17.3,38.7-38.7,38.7c0,0,0,0,0,0h-198C26.4,424.2,9,406.9,9,385.5c0,0,0,0,0,0
		V362.2L9,362.2z"/>
	<path class="st0" d="M50.1,9h195.7c21.4,0,38.7,17.3,38.7,38.7c0,0,0,0,0,0v18.1l0,0H11.3l0,0V47.7C11.3,26.3,28.7,9,50.1,9
		C50.1,9,50.1,9,50.1,9z"/>
	<rect x="9" y="65.8" class="st1" width="275.5" height="296.3"/>
	<circle class="st0" cx="147.6" cy="161.1" r="63.7"/>
	<path class="st2" d="M245.8,0h-198C21.4,0,0.1,21.4,0,47.7v337.7c0,26.3,21.4,47.7,47.7,47.7h198c26.3,0,47.7-21.4,47.7-47.7V47.7
		C293.5,21.4,272.1,0,245.8,0z M47.8,18h198c16.4,0,29.7,13.3,29.7,29.7v9.1H18v-9.1C18,31.3,31.3,18,47.8,18L47.8,18z M275.5,385.5
		c0,16.4-13.3,29.7-29.7,29.7h-198c-16.4,0-29.7-13.3-29.7-29.7v-14.3h257.5V385.5z M18,353.2V74.8h257.5v278.3L18,353.2z"/>
	<path class="st2" d="M147.3,88.3c-40.2,0-72.7,32.6-72.7,72.7s32.6,72.7,72.7,72.7c40.2,0,72.7-32.6,72.7-72.7
		C219.9,120.9,187.4,88.4,147.3,88.3z M166.5,212.3c-12.4,4.7-26.1,4.7-38.5,0c-1.6-10.6,5.6-20.6,16.3-22.2
		c10.6-1.6,20.6,5.6,22.2,16.3C166.8,208.3,166.8,210.3,166.5,212.3z M136.8,157.2c0-5.8,4.6-10.5,10.4-10.5
		c5.8,0,10.5,4.6,10.5,10.4s-4.6,10.5-10.4,10.5c0,0,0,0,0,0C141.5,167.6,136.8,162.9,136.8,157.2z M183.9,201.6
		c-2.1-10-8.2-18.7-16.9-24.1c11.3-10.9,11.6-29,0.7-40.3s-29-11.6-40.3-0.7s-11.6,29-0.7,40.3c0.2,0.2,0.4,0.4,0.7,0.7
		c-8.7,5.4-14.7,14.1-16.9,24.1c-22.4-20.2-24.2-54.9-4-77.3s54.9-24.2,77.3-4s24.2,54.9,4,77.3
		C186.6,199.1,185.3,200.4,183.9,201.6L183.9,201.6z"/>
	<path class="st2" d="M171.1,297.7H123c-5,0-9,4-9,9v34.2c0,5,4,9,9,9h48.1c5,0,9-4,9-9v-34.2C180.1,301.7,176.1,297.7,171.1,297.7z
		 M162.1,331.9H132v-16.2h30.1V331.9z"/>
	<path class="st2" d="M194.4,244.4H95.8c-5,0-9,4-9,9s4,9,9,9h98.5c5,0,9-4,9-9S199.3,244.4,194.4,244.4z"/>
	<path class="st2" d="M171.4,271h-47.5c-5,0-9,4-9,9s4,9,9,9h47.5c5,0,9-4,9-9S176.3,271,171.4,271z"/>
	<path class="st2" d="M123.8,403.2h47.5c5,0,9-4,9-9s-4-9-9-9h-47.5c-5,0-9,4-9,9S118.9,403.2,123.8,403.2z"/>
	<path class="st2" d="M122.8,48.4h47.5c5,0,9-4,9-9s-4-9-9-9h-47.5c-5,0-9,4-9,9C113.8,44.3,117.8,48.4,122.8,48.4L122.8,48.4z"/>
</g>
</svg>
