<svg xmlns="http://www.w3.org/2000/svg" xmlns:xlink="http://www.w3.org/1999/xlink" preserveAspectRatio="xMidYMid" width="487" height="471" viewBox="0 0 487 471">
  <defs>
    <style>
      .cls-1, .cls-2 {
        fill: #fdc931;
      }

      .cls-2, .cls-3 {
        fill-rule: evenodd;
      }

      .cls-3 {
        fill: #2a284f;
      }
    </style>
  </defs>
  <rect x="294" y="122" width="66" height="326" class="cls-1"/>
  <rect x="23" y="272" width="111" height="71" class="cls-1"/>
  <path d="M256.000,23.000 L452.000,23.000 L452.000,99.000 L203.000,99.000 L256.000,23.000 Z" class="cls-2"/>
  <path d="M203.000,78.000 L256.000,24.000 L257.000,99.000 L203.000,99.000 L203.000,78.000 Z" class="cls-2"/>
  <path d="M480.000,272.000 L430.000,272.000 L430.000,350.000 L430.000,359.000 C430.000,362.866 426.866,366.000 423.000,366.000 L414.000,366.000 L382.000,366.000 L382.000,449.000 L382.000,455.000 L382.000,460.000 L382.000,464.000 L382.000,471.000 L375.000,471.000 L279.000,471.000 L272.000,471.000 L272.000,464.000 L272.000,460.000 L272.000,455.000 L272.000,449.000 L272.000,366.000 L206.000,366.000 L206.000,451.000 C206.000,452.543 205.485,453.957 204.640,455.114 C203.739,457.939 201.124,460.000 198.000,460.000 L56.000,460.000 C52.134,460.000 49.000,456.866 49.000,453.000 L49.000,451.000 L49.000,444.000 L49.000,366.000 L7.000,366.000 C3.134,366.000 -0.000,362.866 -0.000,359.000 L-0.000,350.000 C-0.000,349.657 0.053,349.329 0.101,349.000 C0.053,348.671 -0.000,348.343 -0.000,348.000 L-0.000,265.000 L-0.000,259.000 L-0.000,256.000 C-0.000,252.134 3.134,249.000 7.000,249.000 L59.000,249.000 L59.000,176.000 L59.000,167.000 C59.000,163.134 62.134,160.000 66.000,160.000 L75.000,160.000 L272.000,160.000 L272.000,122.000 L187.000,122.000 C186.974,122.000 186.950,121.993 186.924,121.992 C183.088,121.974 179.987,120.311 179.987,118.258 L179.987,70.734 C179.987,69.938 180.461,69.203 181.254,68.597 C181.497,67.237 182.135,65.934 183.186,64.882 L246.119,1.950 C247.916,0.153 250.441,-0.438 252.741,0.127 C253.150,0.052 253.569,0.000 254.000,0.000 L468.000,0.000 C471.866,0.000 475.000,3.134 475.000,7.000 L475.000,14.000 L475.000,16.000 L475.000,103.000 C475.000,103.516 474.936,104.016 474.830,104.500 C474.936,104.984 475.000,105.484 475.000,106.000 L475.000,115.000 C475.000,118.866 471.866,122.000 468.000,122.000 L382.000,122.000 L382.000,160.000 L471.000,160.000 L474.000,160.000 L480.000,160.000 C483.866,160.000 487.000,163.134 487.000,167.000 L487.000,256.000 L487.000,265.000 C487.000,268.866 483.866,272.000 480.000,272.000 ZM407.000,343.000 L407.000,272.000 L382.000,272.000 L382.000,343.000 L407.000,343.000 ZM72.000,437.000 L183.000,437.000 L183.000,366.000 L72.000,366.000 L72.000,437.000 ZM23.000,272.000 L23.000,343.000 L134.000,343.000 L134.000,272.000 L23.000,272.000 ZM193.000,183.000 L82.000,183.000 L82.000,249.000 L193.000,249.000 L193.000,183.000 ZM200.000,272.000 L157.000,272.000 L157.000,343.000 L272.000,343.000 L272.000,272.000 L209.000,272.000 L200.000,272.000 ZM216.000,183.000 L216.000,249.000 L272.000,249.000 L272.000,183.000 L216.000,183.000 ZM452.000,23.000 L257.595,23.000 L202.987,77.608 L202.987,99.000 L452.000,99.000 L452.000,23.000 ZM294.000,122.000 L294.000,448.000 L360.000,448.000 L360.000,122.000 L294.000,122.000 ZM464.000,183.000 L382.000,183.000 L382.000,249.000 L464.000,249.000 L464.000,183.000 Z" class="cls-3"/>
</svg>
