<svg xmlns="http://www.w3.org/2000/svg" xmlns:xlink="http://www.w3.org/1999/xlink" preserveAspectRatio="xMidYMid" width="400" height="400" viewBox="0 0 400 400">
  <defs>
    <style>
      .cls-1, .cls-4 {
        fill: #2a284f;
      }

      .cls-2, .cls-3 {
        fill: #fdc931;
      }

      .cls-3, .cls-4 {
        fill-rule: evenodd;
      }

      .cls-5 {
        fill: #fff;
      }

      .cls-6 {
        fill: #e7efde;
      }
    </style>
  </defs>
  <circle cx="43.5" cy="350.5" r="40.5" class="cls-1"/>
  <circle cx="43.5" cy="349.5" r="24.5" class="cls-2"/>
  <path d="M22.999,336.330 L130.503,232.992 L163.994,267.659 L56.490,370.997 L22.999,336.330 Z" class="cls-3"/>
  <circle cx="266" cy="134" r="127" class="cls-1"/>
  <path d="M130.241,229.475 L162.572,197.144 C163.834,195.881 166.741,196.741 169.064,199.064 L172.669,202.669 C174.992,204.992 175.852,207.898 174.589,209.161 L142.258,241.492 C140.995,242.755 138.089,241.895 135.766,239.572 L132.161,235.967 C129.838,233.644 128.978,230.737 130.241,229.475 Z" class="cls-4"/>
  <path d="M153.241,252.475 L185.572,220.144 C186.834,218.881 189.741,219.741 192.064,222.064 L195.669,225.669 C197.992,227.992 198.852,230.898 197.589,232.161 L165.258,264.492 C163.995,265.755 161.089,264.895 158.766,262.572 L155.161,258.967 C152.838,256.644 151.978,253.737 153.241,252.475 Z" class="cls-4"/>
  <path d="M169.716,276.701 L120.076,226.408 C118.138,224.444 118.462,220.981 120.800,218.673 L124.429,215.092 C126.767,212.784 130.233,212.505 132.172,214.469 L181.812,264.763 C183.750,266.727 183.426,270.190 181.088,272.497 L177.460,276.079 C175.122,278.386 171.655,278.665 169.716,276.701 Z" class="cls-4"/>
  <path d="M130.375,232.844 L25.053,335.476 C20.940,339.484 15.767,340.806 13.499,338.429 L9.979,334.741 C7.711,332.364 9.206,327.188 13.319,323.180 L118.642,220.548 C122.755,216.540 127.927,215.218 130.196,217.594 L133.716,221.283 C135.984,223.660 134.488,228.836 130.375,232.844 Z" class="cls-4"/>
  <path d="M177.375,277.844 L72.053,380.476 C67.940,384.484 62.767,385.806 60.499,383.429 L56.979,379.741 C54.711,377.364 56.206,372.188 60.319,368.180 L165.642,265.548 C169.755,261.540 174.927,260.218 177.196,262.594 L180.716,266.283 C182.984,268.660 181.488,273.836 177.375,277.844 Z" class="cls-4"/>
  <circle cx="266" cy="134" r="110" class="cls-5"/>
  <circle cx="265.5" cy="133.5" r="89.5" class="cls-1"/>
  <ellipse cx="266.5" cy="133" rx="73.5" ry="73" class="cls-6"/>
  <path d="M307.694,171.468 L307.694,136.605 C307.694,131.943 306.683,128.550 304.663,126.426 C302.643,124.302 299.785,123.240 296.090,123.240 C293.327,123.240 290.728,123.957 288.294,125.390 C285.859,126.823 284.124,128.766 283.088,131.218 C282.051,133.670 281.533,137.054 281.533,141.371 L281.533,171.468 L272.209,171.468 L272.209,95.526 L281.533,95.526 L281.533,122.774 C285.885,117.732 291.376,115.211 298.007,115.211 C302.081,115.211 305.622,116.014 308.626,117.620 C311.631,119.225 313.780,121.445 315.075,124.276 C316.371,127.108 317.018,131.218 317.018,136.605 L317.018,171.468 L307.694,171.468 ZM247.897,136.605 C247.897,131.943 246.887,128.550 244.866,126.426 C242.846,124.302 239.988,123.240 236.293,123.240 C233.530,123.240 230.932,123.957 228.497,125.390 C226.062,126.823 224.327,128.766 223.291,131.218 C222.255,133.670 221.737,137.054 221.737,141.371 L221.737,171.468 L212.412,171.468 L212.412,95.526 L221.737,95.526 L221.737,122.774 C226.088,117.732 231.579,115.211 238.210,115.211 C242.284,115.211 245.825,116.014 248.829,117.620 C251.834,119.225 253.984,121.445 255.279,124.276 C256.574,127.108 257.221,131.218 257.221,136.605 L257.221,171.468 L247.897,171.468 L247.897,136.605 Z" class="cls-4"/>
</svg>
