<?xml version="1.0" encoding="utf-8"?>
<!-- Generator: Adobe Illustrator 21.0.2, SVG Export Plug-In . SVG Version: 6.00 Build 0)  -->
<svg version="1.1" id="Layer_1" xmlns="http://www.w3.org/2000/svg" xmlns:xlink="http://www.w3.org/1999/xlink" x="0px" y="0px"
	 viewBox="0 0 244.4 278.5" style="enable-background:new 0 0 244.4 278.5;" xml:space="preserve">
<style type="text/css">
	.st0{fill:#FFC000;}
	.st1{fill:#FFDB00;}
	.st2{fill:#FFFFFF;}
	.st3{fill:#ECEFF1;}
</style>
<title>06</title>
<g>
	<g id="Layer_2">
		<polygon class="st0" points="122.2,278.5 22.2,250.4 0,0 122.2,0 		"/>
		<polygon class="st0" points="122.2,278.5 222.1,250.4 244.4,0 122.2,0 		"/>
		<polygon class="st1" points="122.2,258.3 205.6,234.6 224.4,18.8 122.2,18.8 		"/>
	</g>
	<g id="Layer_3">
		<polygon class="st2" points="206.4,77.5 208.6,50.2 158.1,50.2 130.9,50.2 130.9,77.5 130.9,128.5 130.9,156 158.1,152.2 
			174.7,149.9 171.9,184.7 158.1,188.3 130.9,195.5 130.9,200.4 130.9,223.6 147.6,219.2 147.6,219.2 158.1,216.5 169.6,213.5 
			195,206.8 197.3,178 199.9,146.5 202.1,118.7 176.9,122.1 158.1,124.7 158.1,77.5 		"/>
		<polygon class="st3" points="84.8,50.2 84.8,188.3 38,176 38,204.2 84.8,216.5 112.1,223.6 112.1,195.5 112.1,50.2 		"/>
	</g>
</g>
</svg>
