<?xml version="1.0" encoding="utf-8"?>
<!-- Generator: Adobe Illustrator 21.0.2, SVG Export Plug-In . SVG Version: 6.00 Build 0)  -->
<svg version="1.1" id="Layer_2" xmlns="http://www.w3.org/2000/svg" xmlns:xlink="http://www.w3.org/1999/xlink" x="0px" y="0px"
	 viewBox="0 0 399.9 411.1" style="enable-background:new 0 0 399.9 411.1;" xml:space="preserve">
<style type="text/css">
	.st0{fill:#FDC931;}
	.st1{fill:#2a284f;}
</style>
<title>05</title>
<g>
	<polygon class="st0" points="88.9,402.1 143.3,402.1 143.3,208.3 74.2,208.3 	"/>
	<rect x="38.9" y="71.3" class="st0" width="55.9" height="137"/>
	<rect x="9" y="84.5" class="st0" width="29.9" height="106.4"/>
	<polygon class="st0" points="328.7,245.1 303.6,235.6 303.6,40.5 328.7,31.5 	"/>
	<path class="st1" d="M396,1.6c-2.4-1.7-5.5-2.1-8.2-1.1l-66.2,23.9l-21,7.6l0,0L192.8,71c-0.8-4.2-4.5-7.2-8.8-7.2H38.9
		c-5,0-9,4-9,9v2.8H9c-5,0-9,4-9,9v106.4c0,5,4,9,9,9h20.9v8.4c0,5,4,9,9,9h27L80,402.8c0.4,4.7,4.3,8.3,9,8.3h54.4c5,0,9-4,9-9
		V217.3H184c5,0,9-4,9-9v-5.4l106.3,40.6c0.4,0.2,0.8,0.4,1.2,0.5l25.1,9.5l0,0l62.1,23.7c4.6,1.8,9.8-0.6,11.6-5.2
		c0.4-1,0.6-2.1,0.6-3.2V9C399.9,6.1,398.4,3.3,396,1.6z M18,181.9V93.5h11.9v88.4H18z M319.7,44.3V232l-7.1-2.7V46.8l1.2-0.4
		L319.7,44.3z M175,81.7v46H47.9v-46H175z M134.3,393.1H97.3L83.9,217.3h50.4L134.3,393.1z M175,199.3H47.9v-53.6H175V199.3z
		 M193,90l101.6-36.7v169.1L193,183.6V90z M381.9,255.7l-44.2-16.9V37.8l44.2-16L381.9,255.7z"/>
</g>
</svg>
