<?xml version="1.0" encoding="utf-8"?>
<!-- Generator: Adobe Illustrator 21.0.2, SVG Export Plug-In . SVG Version: 6.00 Build 0)  -->
<svg version="1.1" id="Layer_1" xmlns="http://www.w3.org/2000/svg" xmlns:xlink="http://www.w3.org/1999/xlink" x="0px" y="0px"
	 viewBox="0 0 244.4 278.5" style="enable-background:new 0 0 244.4 278.5;" xml:space="preserve">
<style type="text/css">
	.st0{fill:#0076B1;}
	.st1{fill:#009EC4;}
	.st2{fill:#D1EDEA;}
	.st3{fill:#FFFFFF;}
</style>
<title>07</title>
<g>
	<g id="Layer_2">
		<polygon class="st0" points="122.2,278.5 22.2,250.4 0,0 122.2,0 		"/>
		<polygon class="st0" points="122.2,278.5 222.1,250.4 244.4,0 122.2,0 		"/>
		<polygon class="st1" points="122.2,258.3 205.6,234.6 224.4,18.8 122.2,18.8 		"/>
	</g>
	<g id="Layer_3">
		<polygon class="st2" points="44.1,51.6 49.1,81.2 158.9,81.2 141.5,111.4 101.1,111.4 104.1,141 124.4,141 124.4,141 82.8,213 
			112,221.7 158.6,141 158.6,141 188.7,141 190.7,111.4 175.6,111.4 193.1,81.2 193.1,51.6 		"/>
		<polygon class="st3" points="193.1,51.6 122.2,51.6 122.2,81.2 158.9,81.2 141.5,111.4 122.2,111.4 122.2,141 124.4,141 
			124.4,141 122.2,144.9 122.2,204 158.6,141 158.6,141 188.7,141 190.7,111.4 175.6,111.4 193.1,81.2 		"/>
	</g>
</g>
</svg>
