<?xml version="1.0" encoding="utf-8"?>
<!-- Generator: Adobe Illustrator 21.0.2, SVG Export Plug-In . SVG Version: 6.00 Build 0)  -->
<svg version="1.1" id="Layer_3" xmlns="http://www.w3.org/2000/svg" xmlns:xlink="http://www.w3.org/1999/xlink" x="0px" y="0px"
	 viewBox="0 0 429.9 429.9" style="enable-background:new 0 0 429.9 429.9;" xml:space="preserve">
<style type="text/css">
	.st0{fill:#FDC931;}
	.st1{fill:#2a284f;}
</style>
<title>08</title>
<g>
	<path class="st0" d="M313.6,34.1v360.6c-28.1,16.1-59.6,25-91.9,26.1c-2.2,0.1-4.4,0.1-6.7,0.1c-1.8,0-3.6,0-5.3-0.1
		s-3.5-0.1-5.2-0.2C97.1,415,11.4,323.5,9,210.5C11.6,96.7,105.9,6.5,219.6,9.1c27.1,0.6,53.8,6.5,78.6,17.5
		C303.4,28.8,308.6,31.3,313.6,34.1z"/>
	<path class="st1" d="M215,430c-2,0-3.8,0-5.6-0.1s-3.5-0.1-5.4-0.2C89.6,423.9,0,329.7,0,215c0-1.5,0-3.1,0-4.6
		C2.6,91.6,101-2.5,219.7,0.1c28.3,0.6,56.2,6.8,82.1,18.2c5.4,2.4,10.8,5.1,16,7.9c104.2,56.9,142.7,187.4,85.8,291.7
		c-19.8,36.3-49.6,66-85.8,85.8c-29.5,16.2-62.4,25.1-96,26.1C219.5,429.9,217.2,430,215,430z M215,18c-27.4-0.1-54.5,5.6-79.6,16.7
		c-69.8,31.1-115.5,99.6-117.3,176c0,1.4,0,2.8,0,4.3C18,319.9,100.2,406.4,204.9,411.7c1.8,0.1,3.4,0.1,5,0.2s3.3,0.1,5.1,0.1
		c2,0,4.2,0,6.4-0.1c30.8-0.9,60.9-9.1,87.9-23.9c95.5-52.1,130.7-171.7,78.7-267.3c-18.1-33.2-45.4-60.5-78.7-78.7
		c-4.8-2.6-9.7-5.1-14.7-7.3C269.5,23.6,242.4,17.9,215,18L215,18z"/>
	<path class="st1" d="M186.4,282.1c-5,0-9-4-9-9c0-1.4,0.3-2.7,0.9-4l57.5-115.8c2.3-4.4,7.7-6.1,12.1-3.8c4.3,2.2,6,7.4,4,11.8
		l-57.5,115.8C193,280.1,189.9,282.1,186.4,282.1z"/>
	<path class="st1" d="M272.2,284.9c-5,0-9-4-9-9c0-2.4,1-4.7,2.6-6.4l54.3-54.3l-52.9-51.5c-3.6-3.5-3.6-9.2-0.2-12.7
		c3.5-3.6,9.2-3.6,12.7-0.2l59.5,57.9c3.6,3.5,3.6,9.2,0.2,12.7c0,0-0.1,0.1-0.1,0.1l-60.7,60.7
		C276.8,283.9,274.6,284.9,272.2,284.9z"/>
	<path class="st1" d="M158,284.9c-2.4,0-4.7-1-6.4-2.6l-60.7-60.7c-3.5-3.5-3.5-9.2,0-12.7c0,0,0.1-0.1,0.1-0.1l59.5-57.9
		c3.6-3.5,9.3-3.4,12.7,0.2c3.5,3.6,3.4,9.3-0.2,12.7l-52.9,51.5l54.3,54.3c3.5,3.5,3.5,9.2,0,12.7
		C162.7,283.9,160.4,284.9,158,284.9L158,284.9z"/>
</g>
</svg>
