<?xml version="1.0" encoding="utf-8"?>
<!-- Generator: Adobe Illustrator 21.0.2, SVG Export Plug-In . SVG Version: 6.00 Build 0)  -->
<svg version="1.1" id="Layer_1" xmlns="http://www.w3.org/2000/svg" xmlns:xlink="http://www.w3.org/1999/xlink" x="0px" y="0px"
	 viewBox="0 0 457.8 465.1" style="enable-background:new 0 0 457.8 465.1;" xml:space="preserve">
<style type="text/css">
	.st0{fill:none;stroke:#2a284f;stroke-width:18;stroke-miterlimit:10;}
	.st1{fill:#FDC931;}
	.st2{fill:none;}
	.st3{fill:#2a284f;}
</style>
<path class="st0" d="M390.6,439.1"/>
<path class="st1" d="M86.3,361.8h176.1l0,0v77.3l0,0H86.3c-19.1,0-34.5-15.5-34.5-34.5l0,0v-8.2C51.7,377.3,67.2,361.8,86.3,361.8
	L86.3,361.8z"/>
<rect x="51.8" y="136.1" class="st1" width="51.7" height="65.2"/>
<circle class="st1" cx="77.4" cy="77.7" r="28.7"/>
<path class="st2" d="M77.4,57.9c-10.9,0-19.7,8.9-19.7,19.8s8.9,19.7,19.8,19.7s19.7-8.8,19.7-19.7C97.1,66.8,88.3,57.9,77.4,57.9z"
	/>
<path class="st3" d="M77.4,39.9c-20.8,0-37.7,16.9-37.7,37.8c0,20.8,16.9,37.7,37.8,37.7c20.8,0,37.7-16.9,37.7-37.7
	C115.1,56.8,98.2,39.9,77.4,39.9z M77.4,97.4c-10.9,0-19.7-8.9-19.7-19.8s8.9-19.7,19.8-19.7s19.7,8.8,19.7,19.7
	C97.1,88.6,88.3,97.4,77.4,97.4L77.4,97.4z"/>
<path class="st2" d="M76.1,181.6L76.1,181.6c2.7,0,5.2,1.2,6.9,3.3l11.5,13.9v-56.4H57.7v56.4l11.5-13.9
	C70.8,182.8,73.4,181.6,76.1,181.6z"/>
<path class="st2" d="M249.7,398.9v-28H88.5c-14.1,0-25.5,11.4-25.5,25.5c0,15.5,12.5,28,28,28h167
	C252.5,416.9,249.6,408,249.7,398.9z"/>
<path class="st1" d="M399,64.1h-20.2c-14.1,0-25.5,11.4-25.5,25.5v25.5H399c14.1,0,25.5-11.4,25.5-25.5S413.2,64.1,399,64.1
	L399,64.1z"/>
<path class="st3" d="M48.7,232.9c2.7,0,5.3-1.2,7-3.3l20.5-24.9l20.5,24.9c3.2,3.8,8.8,4.4,12.7,1.2c2.1-1.7,3.3-4.3,3.3-7v-90.5
	c0-5-4-9-9-9h-55c-5,0-9,4-9,9v90.5C39.7,228.9,43.7,232.9,48.7,232.9L48.7,232.9z M57.7,142.4h36.8v56.4L83,184.9
	c-1.7-2.1-4.3-3.3-6.9-3.3l0,0c-2.7,0-5.2,1.2-6.9,3.3l-11.5,13.9C57.7,198.8,57.7,142.4,57.7,142.4z"/>
<path class="st3" d="M399,46.1l-258.2,0c-5.1,0-9.5,4.2-9.4,9.3c0.1,4.9,4.1,8.7,9,8.7h203.1c0,0,0,0,0,0.1
	c-5.4,7.4-8.3,16.4-8.3,25.4v309.2c0,14.1-11.4,25.5-25.5,25.5h-16.4c-14.1,0-25.5-11.4-25.5-25.5v-37.6c0-4.6-3.7-8.3-8.3-8.3H89.2
	c-24.3,0-44.6,19.9-44.2,44.2c0.4,25.1,20.8,45.3,46,45.3h218.8c24,0,43.5-19.5,43.5-43.5V133.2c0,0,0,0,0,0h44.9
	c24.3,0,44.7-19.9,44.3-44.2C442.1,65.3,422.9,46.1,399,46.1L399,46.1z M62.9,396.4c0-14.1,11.4-25.5,25.5-25.5h161.2c0,0,0,0,0,0
	v28c0,9.2,2.9,18.1,8.3,25.4c0,0,0,0.1,0,0.1H91C75.5,424.3,63,411.8,62.9,396.4z M399,115.2h-45.8c0,0,0,0,0,0V89.6
	c0-14.1,11.4-25.5,25.5-25.5h19.7c14.3,0,26.3,11.7,26.1,26C424.2,104,413,115.2,399,115.2z"/>
<path class="st3" d="M140.4,212.6h130.7c5,0,9-4,9-9s-4-9-9-9H140.4c-5,0-9,4-9,9S135.4,212.6,140.4,212.6z"/>
<path class="st3" d="M140.4,257.1h130.7c5,0,9-4,9-9s-4-9-9-9H140.4c-5,0-9,4-9,9S135.4,257.1,140.4,257.1L140.4,257.1z"/>
<path class="st3" d="M140.4,302.6h130.7c5,0,9-4,9-9s-4-9-9-9H140.4c-5,0-9,4-9,9S135.4,302.6,140.4,302.6L140.4,302.6z"/>
</svg>
