<?xml version="1.0" encoding="iso-8859-1"?>
<!-- Generator: Adobe Illustrator 19.0.0, SVG Export Plug-In . SVG Version: 6.00 Build 0)  -->
<svg version="1.1" id="Capa_1" xmlns="http://www.w3.org/2000/svg" xmlns:xlink="http://www.w3.org/1999/xlink" x="0px" y="0px"
	 viewBox="0 0 481.698 481.698" style="enable-background:new 0 0 481.698 481.698;" xml:space="preserve">
<g>
	<path style="fill:#3A2C51;" d="M256.522,363.624v-45.976c-5.224,0-10.449,0.522-15.673,0.522s-10.449,0-15.673-0.522v45.976
		c5.225-1.567,10.449-2.09,15.673-2.09S251.298,362.057,256.522,363.624z"/>
	<path style="fill:#3A2C51;" d="M400.718,403.331H291.004c1.567,5.224,2.09,10.449,2.09,15.673c0,5.225-0.522,10.449-2.09,15.673
		h109.714c-2.09-4.702-3.135-9.927-3.135-15.673C397.584,413.257,398.629,408.033,400.718,403.331z"/>
	<path style="fill:#3A2C51;" d="M190.694,403.331H80.98c2.09,4.702,3.135,9.927,3.135,15.673c0,5.747-1.045,10.971-3.135,15.673
		h109.714c-1.567-5.224-2.09-10.449-2.09-15.673C188.604,413.78,189.127,408.555,190.694,403.331z"/>
</g>
<g>
	<path style="fill:#D4E1F4;" d="M301.453,403.331c-2.612-10.971-8.359-20.898-16.196-28.735s-17.763-13.584-28.735-16.196
		c-5.224-1.567-10.449-2.09-15.673-2.09s-10.449,0.522-15.673,2.09c-10.971,2.612-20.898,8.359-28.735,16.196
		c-7.837,7.837-13.584,17.763-16.196,28.735c-1.567,5.224-2.09,10.449-2.09,15.673c0,5.225,0.522,10.449,2.09,15.673
		c6.792,27.167,31.347,47.02,60.604,47.02c16.718,0,32.914-6.792,44.408-18.286c7.837-7.837,13.584-17.763,16.196-28.735
		c1.567-5.224,2.09-10.449,2.09-15.673C303.543,413.78,303.02,408.555,301.453,403.331z"/>
	<path style="fill:#D4E1F4;" d="M86.204,403.331c-6.269-16.196-22.465-28.212-40.751-28.212c-24.033,0-43.886,19.853-43.886,43.886
		c0,24.033,19.853,43.886,43.886,43.886c18.286,0,34.482-12.016,40.751-28.212c2.09-4.702,3.135-9.927,3.135-15.673
		C89.339,413.257,88.294,408.033,86.204,403.331z"/>
	<path style="fill:#D4E1F4;" d="M436.245,375.118c-18.286,0-34.482,12.016-40.751,28.212c-2.09,4.702-3.135,9.927-3.135,15.673
		c0,5.747,1.045,10.971,3.135,15.673c6.269,16.196,22.465,28.212,40.751,28.212c24.033,0,43.886-19.853,43.886-43.886
		C480.131,394.971,460.278,375.118,436.245,375.118z"/>
</g>
<path style="fill:#00BBD3;" d="M256.522,328.098c57.992-2.612,102.4-20.898,102.4-42.318v-81.502
	c0,23.51-52.767,42.841-118.073,42.841s-118.073-19.331-118.073-42.841v81.502c0,21.42,44.408,39.706,102.4,42.318
	c5.225,0,10.449,0.522,15.673,0.522S251.298,328.62,256.522,328.098z"/>
<g>
	<path style="fill:#4DCFE0;" d="M240.849,247.118c65.306,0,118.073-19.331,118.073-42.841v-1.567v-78.89
		c0,23.51-52.767,42.841-118.073,42.841s-118.073-19.331-118.073-42.841v78.89v1.567
		C122.775,227.788,175.543,247.118,240.849,247.118z"/>
	<path style="fill:#4DCFE0;" d="M240.849,85.682c65.306,0,118.073-19.331,118.073-42.841S306.155,0,240.849,0
		S122.775,19.331,122.775,42.841S175.543,85.682,240.849,85.682z"/>
</g>
<path style="fill:#00BBD3;" d="M240.849,166.661c65.306,0,118.073-19.331,118.073-42.841v-80.98
	c0,23.51-52.767,42.841-118.073,42.841S122.775,66.351,122.775,42.841v80.98C122.775,147.331,175.543,166.661,240.849,166.661z"/>
<g>
</g>
<g>
</g>
<g>
</g>
<g>
</g>
<g>
</g>
<g>
</g>
<g>
</g>
<g>
</g>
<g>
</g>
<g>
</g>
<g>
</g>
<g>
</g>
<g>
</g>
<g>
</g>
<g>
</g>
</svg>
