<?xml version="1.0" encoding="iso-8859-1"?>
<!-- Generator: Adobe Illustrator 19.0.0, SVG Export Plug-In . SVG Version: 6.00 Build 0)  -->
<svg version="1.1" id="Layer_1" xmlns="http://www.w3.org/2000/svg" xmlns:xlink="http://www.w3.org/1999/xlink" x="0px" y="0px"
	 viewBox="0 0 512 512" style="enable-background:new 0 0 512 512;" xml:space="preserve">
<path style="fill:#AF8066;" d="M498.225,52.974c7.6-0.009,13.762-6.17,13.771-13.771v-8.298
	c-68.254-51.19-165.082-37.358-216.272,30.896c-20.056,26.738-30.896,59.267-30.896,92.688c-0.009,7.389,0.521,14.759,1.589,22.069
	H61.797c-14.627,0-26.482,11.855-26.482,26.482c0,14.627,11.855,26.482,26.482,26.482h39.812
	c-14.371,17.381-22.21,39.238-22.157,61.792v104.34c-20.241-23.763-35.116-51.614-43.608-81.654
	c-2.313-7.689-9.445-12.915-17.478-12.8c-9.878-0.194-18.07,7.6-18.361,17.478c-0.009,1.492,0.203,2.984,0.618,4.414
	c13.55,48.03,40.968,90.984,78.829,123.496c10.981,9.648,22.801,18.299,35.31,25.864c7.742,4.767,15.722,9.128,23.922,13.065
	c74.23,35.31,160.403,35.31,234.633,0c5.12-2.472,10.152-5.12,15.095-7.856c12.403-6.938,24.205-14.883,35.31-23.746
	c42.301-33.262,72.985-79.059,87.656-130.823c2.313-9.507-3.513-19.085-13.02-21.398c-1.545-0.38-3.134-0.547-4.723-0.494
	c-4.926-0.026-9.657,1.916-13.153,5.385c-2.048,2.066-3.54,4.617-4.325,7.415c-9.728,34.321-27.727,65.72-52.435,91.452V291.315
	c0-2.993-0.194-5.959-0.486-8.907l0.486,0.079l-1.059-5.032v-0.177c-0.459-3.452-1.13-6.877-2.03-10.24v-0.088l-19.42-96.837
	c-0.274-1.368-0.424-2.754-0.441-4.149c0.044-11.908,9.745-21.53,21.654-21.477c7.494,0.026,14.442,3.955,18.335,10.355
	l11.034,18.538c7.035,11.714,22.227,15.501,33.933,8.474c8.951-5.376,13.568-15.801,11.529-26.041l-16.331-81.742
	c-1.916-9.542,4.255-18.829,13.797-20.753C495.868,53.089,497.042,52.974,498.225,52.974z M388.412,435.731
	c-83.084,56.902-193.25,54.306-273.562-6.444c1.801-75.528,64.493-135.298,140.021-133.506
	c74.265,1.774,133.541,62.481,133.541,136.772V435.731z"/>
<path style="fill:#F18D46;" d="M493.635,301.201c-4.926-0.026-9.657,1.916-13.153,5.385c-1.306,1.253-2.357,2.754-3.09,4.414
	c-0.538,0.945-0.953,1.951-1.236,3.001c-3.584,12.8-8.342,25.238-14.212,37.163c-0.088,0.088-0.177,0.177-0.177,0.265
	c-1.236,2.472-2.56,5.032-3.972,7.503c-1.148,2.119-2.383,4.149-3.619,6.267c-8.563,14.548-18.785,28.054-30.455,40.253v-0.265
	c-10.664,11.29-22.501,21.407-35.31,30.19v0.353c-19.773,13.656-41.586,24.117-64.617,30.984c-3.266,0.971-6.709,1.942-10.063,2.825
	c-0.265,0.088-0.618,0.088-0.883,0.177c-3.531,0.971-7.062,1.765-10.593,2.383c-3.707,0.794-7.415,1.412-11.211,2.03
	c-3.001,0.441-6.091,0.794-9.181,1.148c-1.677,0.177-3.443,0.353-5.12,0.441c-1.766,0.177-3.619,0.353-5.385,0.441
	c-1.792,0.177-3.584,0.265-5.385,0.265c-3.354,0.177-6.621,0.265-9.975,0.265c-3.708,0-7.415-0.088-11.123-0.265
	c-0.971,0-2.03-0.088-3.001-0.177c-2.648-0.177-5.208-0.353-7.856-0.618c-1.748-0.088-3.478-0.265-5.208-0.53
	c-1.412-0.177-2.913-0.353-4.325-0.53c-1.589-0.177-3.178-0.441-4.767-0.706c-3.354-0.53-6.709-1.059-9.975-1.766
	c-3.708-0.706-7.415-1.589-11.123-2.472c-0.132-0.079-0.291-0.115-0.441-0.088c-15.218-3.884-30.004-9.295-44.137-16.154
	c-13.859-6.674-26.985-14.742-39.194-24.099v-0.353c-13.029-9.807-24.902-21.062-35.398-33.544v0.265
	c-4.917-5.808-9.516-11.873-13.771-18.185c-3.972-5.738-7.592-11.564-10.946-17.567c-0.794-1.412-1.589-2.825-2.207-4.237
	c-1.854-3.443-3.619-6.974-5.296-10.593c-1.501-3.178-2.825-6.444-4.149-9.71c-2.825-6.974-5.235-14.106-7.238-21.362
	c-0.291-1.033-0.671-2.039-1.148-3.001c-3.187-6.064-9.481-9.843-16.331-9.798c-9.878-0.194-18.07,7.6-18.361,17.478
	c-0.009,1.492,0.203,2.984,0.618,4.414c13.55,48.03,40.968,90.984,78.829,123.496c10.981,9.648,22.801,18.299,35.31,25.864
	c7.742,4.767,15.722,9.128,23.922,13.065c74.23,35.31,160.403,35.31,234.633,0c5.12-2.472,10.152-5.12,15.095-7.856
	c12.403-6.938,24.205-14.883,35.31-23.746c42.301-33.262,72.985-79.059,87.656-130.823c2.313-9.507-3.513-19.085-13.02-21.398
	C496.813,301.316,495.224,301.157,493.635,301.201z"/>
<path style="fill:#894B9D;" d="M141.244,176.558h123.584l0,0v61.792c0,9.754-7.901,17.655-17.655,17.655h-88.274
	c-9.754,0-17.655-7.901-17.655-17.655V176.558L141.244,176.558z"/>
<path style="fill:#464F5D;" d="M450.204,97.111c-4.873,0-8.827-3.946-8.827-8.819v-0.009v-8.827c0-4.873,3.955-8.827,8.827-8.827
	c4.873,0,8.827,3.955,8.827,8.827v8.827c0,4.873-3.946,8.827-8.819,8.827C450.204,97.111,450.204,97.111,450.204,97.111z"/>
<g>
	<path style="fill:#AF8066;" d="M43.083,335.363c-3.319-7.927-6.117-16.066-8.386-24.364c0.477,0.962,0.856,1.969,1.148,3.001
		C37.839,321.257,40.258,328.39,43.083,335.363z"/>
	<path style="fill:#AF8066;" d="M477.392,311c-3.866,13.85-9.039,27.294-15.448,40.165c5.87-11.926,10.628-24.364,14.212-37.163
		C476.43,312.951,476.845,311.944,477.392,311z"/>
</g>
<g>
</g>
<g>
</g>
<g>
</g>
<g>
</g>
<g>
</g>
<g>
</g>
<g>
</g>
<g>
</g>
<g>
</g>
<g>
</g>
<g>
</g>
<g>
</g>
<g>
</g>
<g>
</g>
<g>
</g>
</svg>
