<?xml version="1.0" encoding="utf-8"?>
<!-- Generator: Adobe Illustrator 21.0.2, SVG Export Plug-In . SVG Version: 6.00 Build 0)  -->
<svg version="1.1" id="Layer_2" xmlns="http://www.w3.org/2000/svg" xmlns:xlink="http://www.w3.org/1999/xlink" x="0px" y="0px"
	 viewBox="0 0 372 423.9" style="enable-background:new 0 0 372 423.9;" xml:space="preserve">
<style type="text/css">
	.st0{fill:none;stroke:#2a284f;stroke-width:18;stroke-miterlimit:10;}
	.st1{fill:#FDC931;}
	.st2{fill:#2a284f;}
</style>
<title>11</title>
<g>
	<path class="st0" d="M390.9,196.3"/>
	<path class="st1" d="M223.7,332c0,45.8-37.1,82.8-82.8,82.8l0,0v-298c45.7,0,82.8,37.1,82.8,82.8V332z"/>
	<path class="st2" d="M79.4,185c0,20.4,16.5,36.9,36.9,36.9s36.9-16.5,36.9-36.9S136.8,148,116.4,148C96,148.1,79.5,164.6,79.4,185z
		 M116.4,166c10.5,0,18.9,8.5,18.9,18.9c0,10.5-8.5,18.9-18.9,18.9s-18.9-8.5-18.9-18.9C97.5,174.5,105.9,166.1,116.4,166z"/>
	<path class="st2" d="M337.5,187.3h-10.1c-16.9,0-24.5-14.3-24.5-28.5V63.7c0-35.1-28.5-63.6-63.7-63.7h-72.6
		c-35.1,0-63.6,28.5-63.6,63.7v44.2H92.1C41.2,107.9,0,149.1,0,200v131.8c0.1,50.8,41.3,92,92.1,92.1h51c50.8-0.1,92-41.3,92.1-92.1
		V199.9c-0.1-50.8-41.3-92-92.1-92.1h-22.1V63.7c0-25.2,20.5-45.6,45.7-45.7h72.6c25.2,0,45.6,20.5,45.6,45.7v95.1
		c0,26.9,17.9,46.5,42.5,46.5h10.1c14.4,0,16.5,16.1,16.5,25.6v145.9c0,5,4,9,9,9l0,0c5,0,9-4,9-9V230.9
		C372,204,358.7,187.3,337.5,187.3z M217.1,199.9v131.9c0,40.9-33.2,74-74.1,74.1h-51c-40.9,0-74-33.2-74.1-74.1V199.9
		c0-40.9,33.2-74,74.1-74.1h51C184,125.9,217.1,159,217.1,199.9z"/>
</g>
</svg>
