<?xml version="1.0" encoding="utf-8"?>
<!-- Generator: Adobe Illustrator 21.0.2, SVG Export Plug-In . SVG Version: 6.00 Build 0)  -->
<svg version="1.1" id="Layer_2" xmlns="http://www.w3.org/2000/svg" xmlns:xlink="http://www.w3.org/1999/xlink" x="0px" y="0px"
	 viewBox="0 0 393.5 461.6" style="enable-background:new 0 0 393.5 461.6;" xml:space="preserve">
<style type="text/css">
	.st0{fill:#FFFFFF;}
	.st1{fill:#FDC931;}
	.st2{fill:#2a284f;}
</style>
<title>12</title>
<g>
	
		<rect x="48.4" y="50.3" transform="matrix(0.965 -0.2622 0.2622 0.965 -12.3241 59.1523)" class="st0" width="334.2" height="50.9"/>
	<polygon class="st1" points="57.9,157.2 40.9,193.6 20,193.6 20,109.8 39.5,109.8 52.3,142.9 52.3,142.9 	"/>
	<polygon class="st1" points="370.1,168.4 370.1,193.6 63,193.6 74.4,169 74.7,168.4 	"/>
	<polygon class="st1" points="150,330.3 150,259.3 204.1,294.8 258.3,330.3 204.1,365.8 150,401.4 	"/>
	<path class="st2" d="M75.3,168.4c-0.3,0.2-0.6,0.4-0.9,0.5l0.3-0.5H75.3z"/>
	<path class="st2" d="M393.2,56.4L381,7.6c-1.3-5.4-6.8-8.6-12.1-7.3L10.7,89.8H10c-5.5,0-10,4.5-10,10v351.8c0,5.5,4.5,10,10,10
		h370.1c5.5,0,10-4.5,10-10V158.4c0-5.5-4.5-10-10-10H75.9l-0.8-2.2L386,68.6C391.3,67.2,394.6,61.8,393.2,56.4
		C393.2,56.5,393.2,56.4,393.2,56.4z M20,109.8h19.4l12.9,33.1l0,0l5.6,14.4l-17,36.3H20V109.8z M370.1,441.6H20v-228h350.1V441.6z
		 M370.1,168.4v25.1H63L74.4,169l0.3-0.5L370.1,168.4z M67.8,127.4L56.7,98.8L364,22.1l7.4,29.5L67.8,127.4z"/>
	<path class="st2" d="M150,411.4c-5.5,0-10-4.5-10-10V259.3c0-5.5,4.5-10,10-10c1.9,0,3.8,0.6,5.5,1.6l108.4,71.1
		c4.6,3,5.9,9.2,2.9,13.8c-0.8,1.1-1.7,2.1-2.9,2.9l-108.4,71.1C153.8,410.8,151.9,411.4,150,411.4z M160,277.8v105.1l80.1-52.5
		L160,277.8z"/>
</g>
</svg>
